<svg xmlns="http://www.w3.org/2000/svg" fill="#eb0a14" viewBox="0 0 256 256">
   <path d="M16 75C7 75-1 83 0 92c3 59 23 111 52 139 33 33 73 33 105 0 6-5 12-12 17-20 1-2 4-3 6-2 7 5 16 8 25 9 28 0 51-25 51-55 0-27-19-49-44-53-2-1-4-3-4-5l1-13c1-9-7-17-16-17Zm34 35h110c5 0 9 4 9 10-2 35-14 67-32 86-20 19-45 19-64 0-18-19-30-51-32-86 0-6 4-10 9-10zm155 33c12 1 20 10 20 20 0 12-9 21-20 21-4 0-8-2-11-4-2-2-2-5-1-6 4-9 6-17 8-27 1-2 2-4 4-4z"/>
   <rect id="s" width="35" height="64" x="38" ry="20"/>
   <use x="48" href="#s"/>
   <use x="96" href="#s"/>
</svg>