<svg xmlns="http://www.w3.org/2000/svg" viewBox="0 0 256 256" fill="#eb0a14">
   <rect width="256" height="256" ry="17.5" fill="#323437" />
   <path d="M55.96 94.03c-5.8 0-10.94 4.79-10.3 10.94 1.93 37.59 14.8 71.08 33.46 89.53 21.24 21.19 46.98 21.19 67.57 0a59.3 59.3 0 0 0 10.78-13.15 2.6 2.6 0 0 1 3.78-.9c4.9 3.21 10.53 5 16.32 5.17 18.13 0 32.82-15.6 32.82-34.86.03-17.47-12.08-32.1-28.08-34.55a3.14 3.14 0 0 1-2.63-3.3l.47-7.94c.64-6.15-4.5-10.94-10.3-10.94h-56.62zm21.71 22.56h71.11a5.57 5.57 0 0 1 5.47 5.97c-1.2 22.94-9.18 43.58-20.43 55.54-12.87 12.3-28.96 12.3-41.18 0-11.85-11.96-19.34-32.6-20.45-55.54a5.6 5.6 0 0 1 5.48-5.97zm100.16 21.12c7.76.34 12.62 6.1 12.61 13.05.01 7.45-5.86 13.38-12.87 12.99-2.65.02-5.21-.88-7.32-2.52-1-.78-1.21-2.7-.66-3.88a72.48 72.48 0 0 0 5.61-17.23c.26-1.29 1.38-2.47 2.63-2.41z" />
   <rect width="22.5" height="41" x="100" y="45.61" ry="12" />
   <rect width="22.5" height="41" x="131" y="45.61" ry="12" />
   <rect width="22.5" height="41" x="70" y="45.61"  ry="12" />
</svg>