<svg xmlns="http://www.w3.org/2000/svg" viewBox="0 0 256 256" fill="#eb0a14">
   <path
      d="M56 94c-5.8 0-10.9 4.8-10.5 11 2.2 37.6 14.9 71 33.5 89.5 21.3 21.1 46.2 20.5 67-.5 3.7-3.7 8-7.9 11-13a2.9 2.9 0 0 1 4-1 29 29 0 0 0 16 5c18.1.1 33.4-15 33.4-34.2A34.8 34.8 0 0 0 182 116c-1.5-.2-2.4-1.5-2.3-3.1.2-2.7-.2-3 .3-8A10 10 0 0 0 169.9 94H113Zm21.5 22.6h71c3.1 0 5.9 2.7 5.7 6-1.2 23-8.8 43.8-20.4 55.4-12.5 12.6-28.9 12.3-41.1 0-11.9-12-19.5-32.5-20.6-55.4-.2-3.3 2.3-6 5.4-6zm100.3 21.1c7.7 1 12.6 6.1 12.6 13 0 7.5-6.4 12.6-13.4 12.3-2.7-.1-5.1-.9-6.8-2-1-.7-1.4-2.2-1.1-4 .2-1.7 4.7-11.2 5.9-17 .3-1.3 1.4-2.5 2.8-2.3z" />
   <rect width="22" height="41" x="100" y="46" ry="13" />
   <rect width="22" height="41" x="131" y="46" ry="13" />
   <rect width="22" height="41" x="70" y="46" ry="13" />
</svg>