<svg xmlns="http://www.w3.org/2000/svg" viewBox="0 0 256 256" fill="#eb0a14">
   <path d="M27 80c-9 0-16 7-15 15 3 53 21 101 47 127 30 29 66 29 95 0 6-5 11-12 16-19 1-2 3-2 5-1 7 4 15 7 23 7 25 0 46-22 46-49 0-25-17-45-39-49-3 0-4-2-4-4V95c1-8-6-15-14-15h-80zm30 32h100c5 0 8 4 8 8-2 33-13 62-29 79-18 17-41 17-58 0s-27-46-29-79c0-4 4-8 8-8zm141 30c11 0 18 8 18 18s-8 19-18 18c-4 0-8-1-10-3-2-1-2-4-1-6 3-7 6-15 7-24 1-2 2-3 4-3z" />
   <path d="m87 121 20 47 9-15 15 24c4 6 5 7 2 12-16 15-37 14-51-2-7-7-10-14-13-21-1-2-2-5-1-8z" />
   <rect width="32" height="58" x="89" y="12" ry="18" />
   <rect width="32" height="58" x="133" y="12" ry="18" />
   <rect width="32" height="58" x="46" y="12" ry="18" />
   <circle cx="136" cy="138" r="16" />
</svg>