<?xml version="1.0" encoding="UTF-8" standalone="no"?>
<!-- Created with Inkscape (http://www.inkscape.org/) -->

<svg
   width="512"
   height="512"
   viewBox="0 0 512 512"
   version="1.1"
   id="svg1"
   inkscape:version="1.4 (e7c3feb100, 2024-10-09)"
   xml:space="preserve"
   sodipodi:docname="drawing-1.svg"
   inkscape:dataloss="true"
   xmlns:inkscape="http://www.inkscape.org/namespaces/inkscape"
   xmlns:sodipodi="http://sodipodi.sourceforge.net/DTD/sodipodi-0.dtd"
   xmlns="http://www.w3.org/2000/svg"
   xmlns:svg="http://www.w3.org/2000/svg"><sodipodi:namedview
     id="namedview1"
     pagecolor="#ffffff"
     bordercolor="#000000"
     borderopacity="0.25"
     inkscape:showpageshadow="false"
     inkscape:pageopacity="0.0"
     inkscape:pagecheckerboard="false"
     inkscape:deskcolor="#d1d1d1"
     inkscape:document-units="px"
     showborder="false"
     showgrid="true"
     borderlayer="false"
     inkscape:zoom="0.70710678"
     inkscape:cx="370.52395"
     inkscape:cy="259.50819"
     inkscape:window-width="1920"
     inkscape:window-height="1176"
     inkscape:window-x="0"
     inkscape:window-y="24"
     inkscape:window-maximized="1"
     inkscape:current-layer="layer1"
     showguides="false" /><defs
     id="defs1"><inkscape:path-effect
       effect="fillet_chamfer"
       id="path-effect90"
       is_visible="true"
       lpeversion="1"
       nodesatellites_param="F,0,0,1,0,0,0,1 @ F,0,0,1,0,0,0,1 @ F,0,0,1,0,0,0,1 @ F,0,0,1,0,0,0,1 @ F,0,0,1,0,0,0,1 @ F,0,0,1,0,0,0,1 @ F,0,0,1,0,0,0,1 @ F,0,0,1,0,0,0,1 @ F,0,0,1,0,0,0,1 @ F,0,0,1,0,0,0,1 @ F,0,0,1,0,0,0,1 | F,0,0,1,0,0,0,1 @ F,0,0,1,0,0,0,1 @ F,0,0,1,0,0,0,1 @ F,0,0,1,0,0,0,1 | F,0,0,1,0,0,0,1 @ F,0,0,1,0,0,0,1 @ F,0,0,1,0,0,0,1 @ F,0,0,1,0,0,0,1 | F,0,0,1,0,0,0,1 @ F,0,0,1,0,0,0,1 @ F,0,0,1,0,0,0,1 @ F,0,0,1,0,0,0,1 | F,0,0,1,0,0,0,1 @ F,0,0,1,0,0,0,1 @ F,0,0,1,0,0,0,1 @ F,0,0,1,0,0,0,1 | F,0,0,1,0,0,0,1 @ F,0,0,1,0,0,0,1 @ F,0,0,1,0,0,0,1 @ F,0,0,1,0,0,0,1 @ F,0,0,1,0,0,0,1 | F,0,0,1,0,0,0,1 @ F,0,0,1,0,0,0,1 @ F,0,0,1,0,0,0,1 @ F,0,0,1,0,0,0,1 @ F,0,0,1,0,0,0,1"
       radius="0"
       unit="px"
       method="auto"
       mode="F"
       chamfer_steps="1"
       flexible="false"
       use_knot_distance="true"
       apply_no_radius="true"
       apply_with_radius="true"
       only_selected="false"
       hide_knots="false" /><inkscape:path-effect
       effect="fillet_chamfer"
       id="path-effect89"
       is_visible="true"
       lpeversion="1"
       nodesatellites_param="F,0,0,1,0,8.0897226,0,1 @ F,0,0,1,0,0,0,1 @ F,0,0,1,0,8.4791683,0,1 @ F,0,0,1,0,0,0,1 @ F,0,0,1,0,1.3816752,0,1 @ F,0,0,1,0,11.111381,0,1 @ F,0,0,1,0,14.399,0,1"
       radius="0"
       unit="px"
       method="auto"
       mode="F"
       chamfer_steps="1"
       flexible="false"
       use_knot_distance="true"
       apply_no_radius="true"
       apply_with_radius="true"
       only_selected="false"
       hide_knots="false" /><inkscape:path-effect
       effect="fillet_chamfer"
       id="path-effect48"
       is_visible="true"
       lpeversion="1"
       nodesatellites_param="F,0,0,1,0,13.291826,0,1 @ F,0,1,1,0,13.291826,0,1 @ F,0,1,1,0,13.291826,0,1 @ F,0,1,1,0,13.291826,0,1 @ F,0,1,1,0,13.291826,0,1 @ F,0,1,1,0,13.291826,0,1"
       radius="0"
       unit="px"
       method="auto"
       mode="F"
       chamfer_steps="1"
       flexible="false"
       use_knot_distance="true"
       apply_no_radius="true"
       apply_with_radius="true"
       only_selected="false"
       hide_knots="false" /><inkscape:path-effect
       effect="fillet_chamfer"
       id="path-effect46"
       is_visible="true"
       lpeversion="1"
       nodesatellites_param="F,0,0,1,0,2.7542343,0,1 @ F,0,0,1,0,17.884898,0,1 @ F,0,0,1,0,17.884898,0,1 @ F,0,0,1,0,17.884898,0,1 @ F,0,0,1,0,17.884898,0,1 @ F,0,0,1,0,3.98541,0,1"
       radius="0"
       unit="px"
       method="auto"
       mode="F"
       chamfer_steps="1"
       flexible="false"
       use_knot_distance="true"
       apply_no_radius="true"
       apply_with_radius="true"
       only_selected="false"
       hide_knots="false" /><inkscape:path-effect
       effect="fillet_chamfer"
       id="path-effect45"
       is_visible="true"
       lpeversion="1"
       nodesatellites_param="F,0,0,1,0,0,0,1 @ F,0,0,1,0,0,0,1 @ F,0,0,1,0,0,0,1 @ F,0,0,1,0,0,0,1 @ F,0,0,1,0,0,0,1 @ F,0,0,1,0,0,0,1"
       radius="0"
       unit="px"
       method="auto"
       mode="F"
       chamfer_steps="1"
       flexible="false"
       use_knot_distance="true"
       apply_no_radius="true"
       apply_with_radius="true"
       only_selected="false"
       hide_knots="false" /><inkscape:path-effect
       effect="fillet_chamfer"
       id="path-effect44"
       is_visible="true"
       lpeversion="1"
       nodesatellites_param="F,0,0,1,0,16.076662,0,1 @ F,0,1,1,0,16.076662,0,1 @ F,0,1,1,0,16.076662,0,1 @ F,0,1,1,0,16.076662,0,1 @ F,0,1,1,0,16.076662,0,1 @ F,0,1,1,0,16.076662,0,1"
       radius="0"
       unit="px"
       method="auto"
       mode="F"
       chamfer_steps="1"
       flexible="false"
       use_knot_distance="true"
       apply_no_radius="true"
       apply_with_radius="true"
       only_selected="false"
       hide_knots="false" /><inkscape:path-effect
       effect="fillet_chamfer"
       id="path-effect43"
       is_visible="true"
       lpeversion="1"
       nodesatellites_param="F,0,0,1,0,0,0,1 @ F,0,0,1,0,0,0,1 @ F,0,0,1,0,0,0,1 @ F,0,0,1,0,0,0,1 @ F,0,0,1,0,0,0,1 @ F,0,0,1,0,0,0,1 @ F,0,1,1,0,20.528176,0,1"
       radius="0"
       unit="px"
       method="auto"
       mode="F"
       chamfer_steps="1"
       flexible="false"
       use_knot_distance="true"
       apply_no_radius="true"
       apply_with_radius="true"
       only_selected="false"
       hide_knots="false" /><inkscape:path-effect
       effect="fillet_chamfer"
       id="path-effect89-4"
       is_visible="true"
       lpeversion="1"
       nodesatellites_param="F,0,0,1,0,8.0897226,0,1 @ F,0,0,1,0,0,0,1 @ F,0,0,1,0,8.4791683,0,1 @ F,0,0,1,0,0,0,1 @ F,0,0,1,0,1.3816752,0,1 @ F,0,0,1,0,11.111381,0,1 @ F,0,0,1,0,14.399,0,1"
       radius="0"
       unit="px"
       method="auto"
       mode="F"
       chamfer_steps="1"
       flexible="false"
       use_knot_distance="true"
       apply_no_radius="true"
       apply_with_radius="true"
       only_selected="false"
       hide_knots="false" /><inkscape:path-effect
       effect="fillet_chamfer"
       id="path-effect89-3"
       is_visible="true"
       lpeversion="1"
       nodesatellites_param="F,0,0,1,0,8.0897226,0,1 @ F,0,0,1,0,0,0,1 @ F,0,0,1,0,8.4791683,0,1 @ F,0,0,1,0,0,0,1 @ F,0,0,1,0,1.3816752,0,1 @ F,0,0,1,0,11.111381,0,1 @ F,0,0,1,0,14.399,0,1"
       radius="0"
       unit="px"
       method="auto"
       mode="F"
       chamfer_steps="1"
       flexible="false"
       use_knot_distance="true"
       apply_no_radius="true"
       apply_with_radius="true"
       only_selected="false"
       hide_knots="false" /><inkscape:path-effect
       effect="fillet_chamfer"
       id="path-effect89-5"
       is_visible="true"
       lpeversion="1"
       nodesatellites_param="F,0,0,1,0,8.0897226,0,1 @ F,0,0,1,0,0,0,1 @ F,0,0,1,0,8.4791683,0,1 @ F,0,0,1,0,0,0,1 @ F,0,0,1,0,1.3816752,0,1 @ F,0,0,1,0,11.111381,0,1 @ F,0,0,1,0,14.399,0,1"
       radius="0"
       unit="px"
       method="auto"
       mode="F"
       chamfer_steps="1"
       flexible="false"
       use_knot_distance="true"
       apply_no_radius="true"
       apply_with_radius="true"
       only_selected="false"
       hide_knots="false" /><inkscape:path-effect
       effect="fillet_chamfer"
       id="path-effect89-4-0"
       is_visible="true"
       lpeversion="1"
       nodesatellites_param="F,0,0,1,0,8.0897226,0,1 @ F,0,0,1,0,0,0,1 @ F,0,0,1,0,8.4791683,0,1 @ F,0,0,1,0,0,0,1 @ F,0,0,1,0,1.3816752,0,1 @ F,0,0,1,0,11.111381,0,1 @ F,0,0,1,0,14.399,0,1"
       radius="0"
       unit="px"
       method="auto"
       mode="F"
       chamfer_steps="1"
       flexible="false"
       use_knot_distance="true"
       apply_no_radius="true"
       apply_with_radius="true"
       only_selected="false"
       hide_knots="false" /><inkscape:path-effect
       effect="fillet_chamfer"
       id="path-effect89-3-9"
       is_visible="true"
       lpeversion="1"
       nodesatellites_param="F,0,0,1,0,8.0897226,0,1 @ F,0,0,1,0,0,0,1 @ F,0,0,1,0,8.4791683,0,1 @ F,0,0,1,0,0,0,1 @ F,0,0,1,0,1.3816752,0,1 @ F,0,0,1,0,11.111381,0,1 @ F,0,0,1,0,14.399,0,1"
       radius="0"
       unit="px"
       method="auto"
       mode="F"
       chamfer_steps="1"
       flexible="false"
       use_knot_distance="true"
       apply_no_radius="true"
       apply_with_radius="true"
       only_selected="false"
       hide_knots="false" /></defs><g
     inkscape:label="Layer 1"
     inkscape:groupmode="layer"
     id="layer1"><path
       id="path89"
       style="fill:#000000;stroke:none;stroke-width:2;stroke-linecap:round;stroke-dasharray:none;paint-order:normal"
       d="m 98,126.5 c -33.5,0 -32.5,40 -32.5,40 C 64,246.5 70,315 116,370 c 18.37167,21.96613 37.99732,36.7932 70.45703,43.10352 50.64152,9.84495 82.41625,7.61701 112.93942,-6.99997 54.77564,-26.23103 76.79975,-66.87259 89.27347,-96.51371 0.28103,0.13655 0.5321,0.27359 0.83008,0.41016 24,11 91.86191,-2.18572 93,-67.5 1.37275,-78.78135 -74.25613,-65.49739 -78.69531,-65.90625 -0.15112,-8.22819 -0.37831,-15.60257 -0.69922,-20.48047 C 401.3377,129.24322 374,126.5 374,126.5 Z m 250.57812,33.03516 c 3.31371,0 6,2.68629 6,6 0,3.31371 -2.68629,6 -6,6 -3.31371,0 -6,-2.68629 -6,-6 0,-3.31371 2.68629,-6 6,-6 z m -235.38476,0.13476 c 3.31371,0 6,2.68629 6,6 0,3.31371 -2.68629,6 -6,6 -3.31371,0 -6,-2.68629 -6,-6 0,-3.31371 2.68629,-6 6,-6 z m 24.3125,0.21875 c 3.31371,0 6,2.68629 6,6 0,3.31371 -2.68629,6 -6,6 -3.31371,0 -6,-2.68629 -6,-6 0,-3.31371 2.68629,-6 6,-6 z m 22.98047,0 c 3.31371,0 6,2.68629 6,6 0,3.31371 -2.68629,6 -6,6 -3.31371,0 -6,-2.68629 -6,-6 0,-3.31371 2.68629,-6 6,-6 z M 92.5,198.5 h 288 c 0,0 5.20448,90.633 -24.5,129.5 -28.81802,37.70711 -55.5,71 -111.5,70.5 C 188.5,398 157,385 124,340.5 91,296 92.5,198.5 92.5,198.5 Z m 315.46875,2.2168 C 422.59851,200.55493 461.34375,196.3125 458.5,241 455,296 397,288 397,288 c 0,0 -0.39515,0.15195 -0.56641,0.21484 5.23717,-21.93978 7.11656,-57.4302 7.44532,-87.32031 0.89729,-0.0757 1.93051,-0.15384 4.08984,-0.17773 z"
       sodipodi:nodetypes="scsssccscscsssssssssssssssssssssccssscsscccs"
       inkscape:path-effect="#path-effect90"
       inkscape:original-d="m 98,126.5 c -33.5,0 -32.5,40 -32.5,40 C 64,246.5 70,315 116,370 c 18.37167,21.96613 37.99732,36.7932 70.45703,43.10352 50.64152,9.84495 82.41625,7.61701 112.93942,-6.99997 54.77564,-26.23103 76.79975,-66.87259 89.27347,-96.51371 0.28103,0.13655 0.5321,0.27359 0.83008,0.41016 24,11 91.86191,-2.18572 93,-67.5 1.37275,-78.78135 -74.25613,-65.49739 -78.69531,-65.90625 -0.15112,-8.22819 -0.37831,-15.60257 -0.69922,-20.48047 C 401.3377,129.24322 374,126.5 374,126.5 Z m 250.57812,33.03516 c 3.31371,0 6,2.68629 6,6 0,3.31371 -2.68629,6 -6,6 -3.31371,0 -6,-2.68629 -6,-6 0,-3.31371 2.68629,-6 6,-6 z m -235.38476,0.13476 c 3.31371,0 6,2.68629 6,6 0,3.31371 -2.68629,6 -6,6 -3.31371,0 -6,-2.68629 -6,-6 0,-3.31371 2.68629,-6 6,-6 z m 24.3125,0.21875 c 3.31371,0 6,2.68629 6,6 0,3.31371 -2.68629,6 -6,6 -3.31371,0 -6,-2.68629 -6,-6 0,-3.31371 2.68629,-6 6,-6 z m 22.98047,0 c 3.31371,0 6,2.68629 6,6 0,3.31371 -2.68629,6 -6,6 -3.31371,0 -6,-2.68629 -6,-6 0,-3.31371 2.68629,-6 6,-6 z M 92.5,198.5 h 288 c 0,0 5.20448,90.633 -24.5,129.5 -28.81802,37.70711 -55.5,71 -111.5,70.5 C 188.5,398 157,385 124,340.5 91,296 92.5,198.5 92.5,198.5 Z m 315.46875,2.2168 C 422.59851,200.55493 461.34375,196.3125 458.5,241 455,296 397,288 397,288 c 0,0 -0.39515,0.15195 -0.56641,0.21484 5.23717,-21.93978 7.11656,-57.4302 7.44532,-87.32031 0.89729,-0.0757 1.93051,-0.15384 4.08984,-0.17773 z" /><path
       style="fill:#000000;stroke:none;stroke-width:2;stroke-linecap:round;stroke-dasharray:none;paint-order:normal"
       d="m 139,317 46.5,-45 c 0,0 11.89949,-19.05025 33.5,8 28.01907,35.0882 74.5,71.5 74.5,71.5 0,0 23.62302,12.83751 -18.5,28 -43.06066,15.5 -90.65114,-3.12572 -118,-26 C 128.55622,329.70993 139,317 139,317 Z"
       id="path74"
       sodipodi:nodetypes="ccscssc" /><circle
       style="fill:#000000;stroke:none;stroke-width:2;stroke-linecap:round;stroke-dasharray:none;paint-order:normal"
       id="path75"
       cx="285.01932"
       cy="259.36127"
       r="25.102291" /><circle
       style="fill:#000000;stroke:none;stroke-width:2;stroke-linecap:round;stroke-dasharray:none;paint-order:normal"
       id="path76"
       cx="285.72644"
       cy="217.64191"
       r="7.4246211" /><circle
       style="fill:#000000;stroke:none;stroke-width:2;stroke-linecap:round;stroke-dasharray:none;paint-order:normal"
       id="path76-2"
       cx="333.75052"
       cy="260.90131"
       r="7.4246211" /><circle
       style="fill:#000000;stroke:none;stroke-width:2;stroke-linecap:round;stroke-dasharray:none;paint-order:normal"
       id="path76-5"
       cx="320.81802"
       cy="228.41241"
       r="7.4246211" /><circle
       style="fill:#000000;stroke:none;stroke-width:2;stroke-linecap:round;stroke-dasharray:none;paint-order:normal"
       id="path76-9"
       cx="288.26346"
       cy="307.07642"
       r="7.4246211" /><circle
       style="fill:#000000;stroke:none;stroke-width:2;stroke-linecap:round;stroke-dasharray:none;paint-order:normal"
       id="path76-4"
       cx="254.67587"
       cy="291.87366"
       r="7.4246211" /><circle
       style="fill:#000000;stroke:none;stroke-width:2;stroke-linecap:round;stroke-dasharray:none;paint-order:normal"
       id="path76-48"
       cx="239.82664"
       cy="261.1145"
       r="7.4246211" /><circle
       style="fill:#000000;stroke:none;stroke-width:2;stroke-linecap:round;stroke-dasharray:none;paint-order:normal"
       id="path76-27"
       cx="320.79034"
       cy="291.87366"
       r="7.4246211" /><circle
       style="fill:#000000;stroke:none;stroke-width:2;stroke-linecap:round;stroke-dasharray:none;paint-order:normal"
       id="path76-1"
       cx="253.6152"
       cy="228.9411"
       r="7.4246211" /><path
       style="fill:#000000;stroke:none;stroke-width:2;stroke-linecap:round;stroke-dasharray:none;paint-order:normal"
       d="m 162.2561,28.991012 c -0.21541,-3.358048 0.72564,-7.168019 4.81441,-9.998702 4.63025,-3.205555 9.08109,-1.028937 12.35848,1.921113 3.4681,3.121714 7.51479,9.690909 9.53951,13.90789 2.13569,4.448108 4.45671,10.633542 5.32562,17.758577 1.71722,14.081162 -10.5777,27.495096 -13.55084,42.834431 -0.14506,0.748426 -0.32538,1.973524 -0.50552,2.714802 -2.54737,10.482107 -13.9443,8.204207 -18.67595,-0.492842 -2.88509,-5.302972 -1.94259,-16.052609 0.91772,-21.445555 0.50284,-0.948063 1.04778,-1.736951 1.62924,-2.436439 5.05937,-6.08632 12.35684,-17.421259 9.23352,-24.393073 -1.03961,-2.32061 -2.36684,-4.513298 -3.67144,-6.402463 -2.53615,-3.672545 -7.13094,-9.543393 -7.41475,-13.967739 z"
       id="path83-6"
       inkscape:path-effect="#path-effect89"
       inkscape:original-d="m 164.59564,36.66998 c 0,0 -6.71752,-11.31371 2.47487,-17.67767 9.19239,-6.363961 17.67767,8.48528 17.67767,8.48528 0,0 7.77817,10.60661 9.54594,25.1023 1.76777,14.49568 -11.31371,28.28427 -13.78858,44.19417 -2.47488,15.9099 -22.98097,7.07107 -20.85965,-9.8995 2.12132,-16.97056 7.77817,-13.08147 14.14213,-23.68807 6.36396,-10.6066 -9.19238,-26.51651 -9.19238,-26.51651 z"
       sodipodi:nodetypes="cscssssc"
       transform="translate(10,2.5931752)" /><path
       style="fill:#000000;stroke:none;stroke-width:2;stroke-linecap:round;stroke-dasharray:none;paint-order:normal"
       d="m 162.2561,28.991012 c -0.21541,-3.358048 0.72564,-7.168019 4.81441,-9.998702 4.63025,-3.205555 9.08109,-1.028937 12.35848,1.921113 3.4681,3.121714 7.51479,9.690909 9.53951,13.90789 2.13569,4.448108 4.45671,10.633542 5.32562,17.758577 1.71722,14.081162 -10.5777,27.495096 -13.55084,42.834431 -0.14506,0.748426 -0.32538,1.973524 -0.50552,2.714802 -2.54737,10.482107 -13.9443,8.204207 -18.67595,-0.492842 -2.88509,-5.302972 -1.94259,-16.052609 0.91772,-21.445555 0.50284,-0.948063 1.04778,-1.736951 1.62924,-2.436439 5.05937,-6.08632 12.35684,-17.421259 9.23352,-24.393073 -1.03961,-2.32061 -2.36684,-4.513298 -3.67144,-6.402463 -2.53615,-3.672545 -7.13094,-9.543393 -7.41475,-13.967739 z"
       id="path83-6-1"
       inkscape:path-effect="#path-effect89-4"
       inkscape:original-d="m 164.59564,36.66998 c 0,0 -6.71752,-11.31371 2.47487,-17.67767 9.19239,-6.363961 17.67767,8.48528 17.67767,8.48528 0,0 7.77817,10.60661 9.54594,25.1023 1.76777,14.49568 -11.31371,28.28427 -13.78858,44.19417 -2.47488,15.9099 -22.98097,7.07107 -20.85965,-9.8995 2.12132,-16.97056 7.77817,-13.08147 14.14213,-23.68807 6.36396,-10.6066 -9.19238,-26.51651 -9.19238,-26.51651 z"
       sodipodi:nodetypes="cscssssc"
       transform="translate(117.12335,2.5931752)" /><path
       style="fill:#000000;stroke:none;stroke-width:2;stroke-linecap:round;stroke-dasharray:none;paint-order:normal"
       d="m 162.2561,28.991012 c -0.21541,-3.358048 0.72564,-7.168019 4.81441,-9.998702 4.63025,-3.205555 9.08109,-1.028937 12.35848,1.921113 3.4681,3.121714 7.51479,9.690909 9.53951,13.90789 2.13569,4.448108 4.45671,10.633542 5.32562,17.758577 1.71722,14.081162 -10.5777,27.495096 -13.55084,42.834431 -0.14506,0.748426 -0.32538,1.973524 -0.50552,2.714802 -2.54737,10.482107 -13.9443,8.204207 -18.67595,-0.492842 -2.88509,-5.302972 -1.94259,-16.052609 0.91772,-21.445555 0.50284,-0.948063 1.04778,-1.736951 1.62924,-2.436439 5.05937,-6.08632 12.35684,-17.421259 9.23352,-24.393073 -1.03961,-2.32061 -2.36684,-4.513298 -3.67144,-6.402463 -2.53615,-3.672545 -7.13094,-9.543393 -7.41475,-13.967739 z"
       id="path83-6-0"
       inkscape:path-effect="#path-effect89-3"
       inkscape:original-d="m 164.59564,36.66998 c 0,0 -6.71752,-11.31371 2.47487,-17.67767 9.19239,-6.363961 17.67767,8.48528 17.67767,8.48528 0,0 7.77817,10.60661 9.54594,25.1023 1.76777,14.49568 -11.31371,28.28427 -13.78858,44.19417 -2.47488,15.9099 -22.98097,7.07107 -20.85965,-9.8995 2.12132,-16.97056 7.77817,-13.08147 14.14213,-23.68807 6.36396,-10.6066 -9.19238,-26.51651 -9.19238,-26.51651 z"
       sodipodi:nodetypes="cscssssc"
       transform="translate(64.090345,2.5931752)" /><path
       id="path89-3"
       style="fill:#000000;stroke:none;stroke-width:2;stroke-linecap:round;stroke-dasharray:none;paint-order:normal"
       d="m 1145.8429,460.5 c -33.5,0 -32.5,40 -32.5,40 -1.5,80 4.5,148.5 50.5,203.5 18.3717,21.96613 42.5725,37.689 68.957,46.35352 L 1126.3429,734.5 c -67.5,0 -39.1241,38.40423 4,67.5 41.5,28 150,26.5 150,26.5 0,0 126,8.5 188,-45 64.0016,-55.2272 -39,-47 -39,-47 l -109.8203,16.56836 c 12.0412,-3.24646 23.7603,-8.05721 34.8203,-14.56836 55.9292,-32.92604 69.6962,-65.26904 82.1699,-94.91016 0.2811,0.13655 0.5321,0.27359 0.8301,0.41016 24,11 91.8619,-2.18572 93,-67.5 1.3728,-78.78135 -74.2561,-65.49739 -78.6953,-65.90625 -0.1511,-8.22819 -0.3783,-15.60257 -0.6992,-20.48047 C 1449.1806,463.24322 1421.8429,460.5 1421.8429,460.5 Z m 250.5781,33.03516 c 3.3137,0 6,2.68629 6,6 0,3.31371 -2.6863,6 -6,6 -3.3137,0 -6,-2.68629 -6,-6 0,-3.31371 2.6863,-6 6,-6 z m -235.3847,0.13476 c 3.3137,0 6,2.68629 6,6 0,3.31371 -2.6863,6 -6,6 -3.3137,0 -6,-2.68629 -6,-6 0,-3.31371 2.6863,-6 6,-6 z m 24.3125,0.21875 c 3.3137,0 6,2.68629 6,6 0,3.31371 -2.6863,6 -6,6 -3.3137,0 -6,-2.68629 -6,-6 0,-3.31371 2.6863,-6 6,-6 z m 22.9804,0 c 3.3137,0 6,2.68629 6,6 0,3.31371 -2.6863,6 -6,6 -3.3137,0 -6,-2.68629 -6,-6 0,-3.31371 2.6863,-6 6,-6 z M 1140.3429,532.5 h 288 c 0,0 7.5,92.5 -24.5,129.5 -32,37 -55.5,71 -111.5,70.5 -56,-0.5 -87.5,-13.5 -120.5,-58 -33,-44.5 -31.5,-142 -31.5,-142 z m 315.4688,2.2168 c 14.6297,-0.16187 53.375,-4.4043 50.5312,40.2832 -3.5,55 -61.5,47 -61.5,47 0,0 -0.3951,0.15195 -0.5664,0.21484 5.2372,-21.93978 7.1166,-57.4302 7.4453,-87.32031 0.8973,-0.0757 1.9305,-0.15384 4.0899,-0.17773 z m -334.5176,223.86132 c 1.2009,0.0642 10.5488,0.20313 12.0488,0.42188 0,0 107.2156,19.63534 160.5,19.5 50.7985,-0.12902 156,-19.5 156,-19.5 0,0 23.5,-2 -5.5,16 -29,18 -86.3646,32.10065 -154,32 -72.5154,-0.10791 -104,-5.5 -135,-20 -29.0625,-13.59375 -52.0627,-29.38499 -34.0488,-28.42188 z"
       sodipodi:nodetypes="scsccscsccsccscscsssssssssssssssssssssccssscsscccsscscssss" /><path
       style="fill:#000000;stroke:none;stroke-width:2;stroke-linecap:round;stroke-dasharray:none;paint-order:normal"
       d="m 1186.8429,651 46.5,-45 c 0,0 11.8995,-19.05025 33.5,8 28.0191,35.0882 74.5,71.5 74.5,71.5 0,0 23.623,12.83751 -18.5,28 -43.0607,15.5 -90.6511,-3.12572 -118,-26 -28.4438,-23.79007 -18,-36.5 -18,-36.5 z"
       id="path74-8"
       sodipodi:nodetypes="ccscssc" /><circle
       style="fill:#000000;stroke:none;stroke-width:2;stroke-linecap:round;stroke-dasharray:none;paint-order:normal"
       id="path75-5"
       cx="1332.8622"
       cy="593.36127"
       r="25.102291" /><circle
       style="fill:#000000;stroke:none;stroke-width:2;stroke-linecap:round;stroke-dasharray:none;paint-order:normal"
       id="path76-6"
       cx="1333.5693"
       cy="551.64191"
       r="7.4246211" /><circle
       style="fill:#000000;stroke:none;stroke-width:2;stroke-linecap:round;stroke-dasharray:none;paint-order:normal"
       id="path76-2-1"
       cx="1381.5934"
       cy="594.90131"
       r="7.4246211" /><circle
       style="fill:#000000;stroke:none;stroke-width:2;stroke-linecap:round;stroke-dasharray:none;paint-order:normal"
       id="path76-5-1"
       cx="1368.6609"
       cy="562.41241"
       r="7.4246211" /><circle
       style="fill:#000000;stroke:none;stroke-width:2;stroke-linecap:round;stroke-dasharray:none;paint-order:normal"
       id="path76-9-5"
       cx="1336.1063"
       cy="641.07642"
       r="7.4246211" /><circle
       style="fill:#000000;stroke:none;stroke-width:2;stroke-linecap:round;stroke-dasharray:none;paint-order:normal"
       id="path76-4-9"
       cx="1302.5188"
       cy="625.87366"
       r="7.4246211" /><circle
       style="fill:#000000;stroke:none;stroke-width:2;stroke-linecap:round;stroke-dasharray:none;paint-order:normal"
       id="path76-48-8"
       cx="1287.6696"
       cy="595.1145"
       r="7.4246211" /><circle
       style="fill:#000000;stroke:none;stroke-width:2;stroke-linecap:round;stroke-dasharray:none;paint-order:normal"
       id="path76-27-4"
       cx="1368.6333"
       cy="625.87366"
       r="7.4246211" /><circle
       style="fill:#000000;stroke:none;stroke-width:2;stroke-linecap:round;stroke-dasharray:none;paint-order:normal"
       id="path76-1-8"
       cx="1301.4581"
       cy="562.9411"
       r="7.4246211" /><path
       style="fill:#000000;stroke:none;stroke-width:2;stroke-linecap:round;stroke-dasharray:none;paint-order:normal"
       d="m 162.2561,28.991012 c -0.21541,-3.358048 0.72564,-7.168019 4.81441,-9.998702 4.63025,-3.205555 9.08109,-1.028937 12.35848,1.921113 3.4681,3.121714 7.51479,9.690909 9.53951,13.90789 2.13569,4.448108 4.45671,10.633542 5.32562,17.758577 1.71722,14.081162 -10.5777,27.495096 -13.55084,42.834431 -0.14506,0.748426 -0.32538,1.973524 -0.50552,2.714802 -2.54737,10.482107 -13.9443,8.204207 -18.67595,-0.492842 -2.88509,-5.302972 -1.94259,-16.052609 0.91772,-21.445555 0.50284,-0.948063 1.04778,-1.736951 1.62924,-2.436439 5.05937,-6.08632 12.35684,-17.421259 9.23352,-24.393073 -1.03961,-2.32061 -2.36684,-4.513298 -3.67144,-6.402463 -2.53615,-3.672545 -7.13094,-9.543393 -7.41475,-13.967739 z"
       id="path83-6-10"
       sodipodi:nodetypes="cscssssc"
       inkscape:path-effect="#path-effect89-5"
       inkscape:original-d="m 164.59564,36.66998 c 0,0 -6.71752,-11.31371 2.47487,-17.67767 9.19239,-6.363961 17.67767,8.48528 17.67767,8.48528 0,0 7.77817,10.60661 9.54594,25.1023 1.76777,14.49568 -11.31371,28.28427 -13.78858,44.19417 -2.47488,15.9099 -22.98097,7.07107 -20.85965,-9.8995 2.12132,-16.97056 7.77817,-13.08147 14.14213,-23.68807 6.36396,-10.6066 -9.19238,-26.51651 -9.19238,-26.51651 z"
       transform="translate(1057.8429,336.59318)" /><path
       style="fill:#000000;stroke:none;stroke-width:2;stroke-linecap:round;stroke-dasharray:none;paint-order:normal"
       d="m 162.2561,28.991012 c -0.21541,-3.358048 0.72564,-7.168019 4.81441,-9.998702 4.63025,-3.205555 9.08109,-1.028937 12.35848,1.921113 3.4681,3.121714 7.51479,9.690909 9.53951,13.90789 2.13569,4.448108 4.45671,10.633542 5.32562,17.758577 1.71722,14.081162 -10.5777,27.495096 -13.55084,42.834431 -0.14506,0.748426 -0.32538,1.973524 -0.50552,2.714802 -2.54737,10.482107 -13.9443,8.204207 -18.67595,-0.492842 -2.88509,-5.302972 -1.94259,-16.052609 0.91772,-21.445555 0.50284,-0.948063 1.04778,-1.736951 1.62924,-2.436439 5.05937,-6.08632 12.35684,-17.421259 9.23352,-24.393073 -1.03961,-2.32061 -2.36684,-4.513298 -3.67144,-6.402463 -2.53615,-3.672545 -7.13094,-9.543393 -7.41475,-13.967739 z"
       id="path83-6-1-3"
       sodipodi:nodetypes="cscssssc"
       inkscape:path-effect="#path-effect89-4-0"
       inkscape:original-d="m 164.59564,36.66998 c 0,0 -6.71752,-11.31371 2.47487,-17.67767 9.19239,-6.363961 17.67767,8.48528 17.67767,8.48528 0,0 7.77817,10.60661 9.54594,25.1023 1.76777,14.49568 -11.31371,28.28427 -13.78858,44.19417 -2.47488,15.9099 -22.98097,7.07107 -20.85965,-9.8995 2.12132,-16.97056 7.77817,-13.08147 14.14213,-23.68807 6.36396,-10.6066 -9.19238,-26.51651 -9.19238,-26.51651 z"
       transform="translate(1164.9663,336.59318)" /><path
       style="fill:#000000;stroke:none;stroke-width:2;stroke-linecap:round;stroke-dasharray:none;paint-order:normal"
       d="m 162.2561,28.991012 c -0.21541,-3.358048 0.72564,-7.168019 4.81441,-9.998702 4.63025,-3.205555 9.08109,-1.028937 12.35848,1.921113 3.4681,3.121714 7.51479,9.690909 9.53951,13.90789 2.13569,4.448108 4.45671,10.633542 5.32562,17.758577 1.71722,14.081162 -10.5777,27.495096 -13.55084,42.834431 -0.14506,0.748426 -0.32538,1.973524 -0.50552,2.714802 -2.54737,10.482107 -13.9443,8.204207 -18.67595,-0.492842 -2.88509,-5.302972 -1.94259,-16.052609 0.91772,-21.445555 0.50284,-0.948063 1.04778,-1.736951 1.62924,-2.436439 5.05937,-6.08632 12.35684,-17.421259 9.23352,-24.393073 -1.03961,-2.32061 -2.36684,-4.513298 -3.67144,-6.402463 -2.53615,-3.672545 -7.13094,-9.543393 -7.41475,-13.967739 z"
       id="path83-6-0-0"
       sodipodi:nodetypes="cscssssc"
       inkscape:path-effect="#path-effect89-3-9"
       inkscape:original-d="m 164.59564,36.66998 c 0,0 -6.71752,-11.31371 2.47487,-17.67767 9.19239,-6.363961 17.67767,8.48528 17.67767,8.48528 0,0 7.77817,10.60661 9.54594,25.1023 1.76777,14.49568 -11.31371,28.28427 -13.78858,44.19417 -2.47488,15.9099 -22.98097,7.07107 -20.85965,-9.8995 2.12132,-16.97056 7.77817,-13.08147 14.14213,-23.68807 6.36396,-10.6066 -9.19238,-26.51651 -9.19238,-26.51651 z"
       transform="translate(1111.9332,336.59318)" /></g></svg>
