<?xml version="1.0" encoding="UTF-8" standalone="no"?>
<!-- Created with Inkscape (http://www.inkscape.org/) -->

<svg
   width="256"
   height="256"
   viewBox="0 0 256 256"
   version="1.1"
   id="svg1"
   inkscape:version="1.4 (e7c3feb100, 2024-10-09)"
   sodipodi:docname="fav2.svg"
   inkscape:export-filename="fav2.svg"
   inkscape:export-xdpi="96"
   inkscape:export-ydpi="96"
   xmlns:inkscape="http://www.inkscape.org/namespaces/inkscape"
   xmlns:sodipodi="http://sodipodi.sourceforge.net/DTD/sodipodi-0.dtd"
   xmlns="http://www.w3.org/2000/svg"
   xmlns:svg="http://www.w3.org/2000/svg">
  <sodipodi:namedview
     id="namedview1"
     pagecolor="#ffffff"
     bordercolor="#000000"
     borderopacity="0.25"
     inkscape:showpageshadow="2"
     inkscape:pageopacity="0.0"
     inkscape:pagecheckerboard="0"
     inkscape:deskcolor="#d1d1d1"
     inkscape:document-units="px"
     showborder="true"
     showgrid="true"
     inkscape:zoom="0.63736285"
     inkscape:cx="737.41355"
     inkscape:cy="1514.8357"
     inkscape:window-width="1920"
     inkscape:window-height="1176"
     inkscape:window-x="0"
     inkscape:window-y="24"
     inkscape:window-maximized="1"
     inkscape:current-layer="svg1" />
  <defs
     id="defs1">
    <inkscape:path-effect
       effect="fillet_chamfer"
       id="path-effect27"
       is_visible="true"
       lpeversion="1"
       nodesatellites_param="F,0,0,1,0,42.897125,0,1 @ F,0,0,1,0,0,0,1 @ F,0,0,1,0,0,0,1 @ F,0,1,1,0,42.897125,0,1 @ F,0,0,1,0,0,0,1 | F,0,0,1,0,0,0,1 @ F,0,0,1,0,0,0,1 @ F,0,0,1,0,0,0,1 @ F,0,0,1,0,0,0,1 @ F,0,0,1,0,0,0,1"
       radius="0"
       unit="px"
       method="auto"
       mode="F"
       chamfer_steps="1"
       flexible="false"
       use_knot_distance="true"
       apply_no_radius="true"
       apply_with_radius="true"
       only_selected="false"
       hide_knots="false" />
    <inkscape:path-effect
       effect="fillet_chamfer"
       id="path-effect5"
       is_visible="true"
       lpeversion="1"
       nodesatellites_param="F,0,0,1,0,9.3048158,0,1 @ F,0,1,1,0,9.3048158,0,1 @ F,0,0,1,0,0,0,1 @ F,0,0,1,0,0,0,1"
       radius="0"
       unit="px"
       method="auto"
       mode="F"
       chamfer_steps="1"
       flexible="false"
       use_knot_distance="true"
       apply_no_radius="true"
       apply_with_radius="true"
       only_selected="false"
       hide_knots="false" />
    <inkscape:path-effect
       effect="fillet_chamfer"
       id="path-effect4"
       is_visible="true"
       lpeversion="1"
       nodesatellites_param="F,0,0,1,0,0,0,1 @ F,0,0,1,0,0,0,1 @ F,0,0,1,0,0,0,1 @ F,0,0,1,0,0,0,1"
       radius="0"
       unit="px"
       method="auto"
       mode="F"
       chamfer_steps="1"
       flexible="false"
       use_knot_distance="true"
       apply_no_radius="true"
       apply_with_radius="true"
       only_selected="false"
       hide_knots="false" />
    <inkscape:path-effect
       effect="fillet_chamfer"
       id="path-effect3"
       is_visible="true"
       lpeversion="1"
       nodesatellites_param="F,0,0,1,0,0,0,1 @ F,0,0,1,0,0,0,1 @ F,0,0,1,0,0,0,1 @ F,0,0,1,0,0,0,1"
       radius="0"
       unit="px"
       method="auto"
       mode="F"
       chamfer_steps="1"
       flexible="false"
       use_knot_distance="true"
       apply_no_radius="true"
       apply_with_radius="true"
       only_selected="false"
       hide_knots="false" />
    <inkscape:path-effect
       effect="fillet_chamfer"
       id="path-effect2"
       is_visible="true"
       lpeversion="1"
       nodesatellites_param="F,0,0,1,0,0,0,1 @ F,0,0,1,0,0,0,1 @ F,0,0,1,0,0,0,1 @ F,0,0,1,0,0,0,1"
       radius="0"
       unit="px"
       method="auto"
       mode="F"
       chamfer_steps="1"
       flexible="false"
       use_knot_distance="true"
       apply_no_radius="true"
       apply_with_radius="true"
       only_selected="false"
       hide_knots="false" />
    <inkscape:path-effect
       effect="fillet_chamfer"
       id="path-effect15"
       is_visible="true"
       lpeversion="1"
       nodesatellites_param="F,0,0,1,0,10.298695,0,1 @ F,0,0,1,0,16.137285,0,1 @ F,0,0,1,0,0,0,1 @ F,0,0,1,0,0,0,1"
       radius="0"
       unit="px"
       method="auto"
       mode="F"
       chamfer_steps="1"
       flexible="false"
       use_knot_distance="true"
       apply_no_radius="true"
       apply_with_radius="true"
       only_selected="false"
       hide_knots="false" />
    <inkscape:path-effect
       effect="fillet_chamfer"
       id="path-effect13"
       is_visible="true"
       lpeversion="1"
       nodesatellites_param="F,0,0,1,0,0,0,1 @ F,0,0,1,0,0,0,1 @ F,0,0,1,0,0,0,1 @ F,0,0,1,0,0,0,1 @ F,0,0,1,0,0,0,1 @ F,0,0,1,0,0,0,1 @ F,0,0,1,0,0,0,1 @ F,0,0,1,0,0,0,1 | F,0,0,1,0,0,0,1 @ F,0,0,1,0,0,0,1 @ F,0,0,1,0,0,0,1 @ F,0,0,1,0,0,0,1 @ F,0,0,1,0,0,0,1 @ F,0,0,1,0,0,0,1 @ F,0,0,1,0,0,0,1 @ F,0,0,1,0,0,0,1"
       radius="0"
       unit="px"
       method="auto"
       mode="F"
       chamfer_steps="1"
       flexible="false"
       use_knot_distance="true"
       apply_no_radius="true"
       apply_with_radius="true"
       only_selected="false"
       hide_knots="false" />
    <inkscape:path-effect
       effect="fillet_chamfer"
       id="path-effect1"
       is_visible="true"
       lpeversion="1"
       nodesatellites_param="F,0,0,1,0,7.0941633,0,1 @ F,0,0,1,0,0,0,1 @ F,0,0,1,0,0,0,1 @ F,0,0,1,0,0,0,1 @ F,0,0,1,0,2.8773517,0,1 @ F,0,0,1,0,0,0,1 @ F,0,0,1,0,0,0,1 @ F,0,0,1,0,0,0,1 @ F,0,0,1,0,0,0,1 @ F,0,0,1,0,0,0,1"
       radius="0"
       unit="px"
       method="auto"
       mode="F"
       chamfer_steps="1"
       flexible="false"
       use_knot_distance="true"
       apply_no_radius="true"
       apply_with_radius="true"
       only_selected="false"
       hide_knots="false" />
    <inkscape:path-effect
       effect="fillet_chamfer"
       id="path-effect5-6"
       is_visible="true"
       lpeversion="1"
       nodesatellites_param="F,0,0,1,0,9.3048158,0,1 @ F,0,1,1,0,9.3048158,0,1 @ F,0,0,1,0,0,0,1 @ F,0,0,1,0,0,0,1"
       radius="0"
       unit="px"
       method="auto"
       mode="F"
       chamfer_steps="1"
       flexible="false"
       use_knot_distance="true"
       apply_no_radius="true"
       apply_with_radius="true"
       only_selected="false"
       hide_knots="false" />
    <inkscape:path-effect
       effect="fillet_chamfer"
       id="path-effect5-7"
       is_visible="true"
       lpeversion="1"
       nodesatellites_param="F,0,0,1,0,9.3048158,0,1 @ F,0,1,1,0,9.3048158,0,1 @ F,0,0,1,0,0,0,1 @ F,0,0,1,0,0,0,1"
       radius="0"
       unit="px"
       method="auto"
       mode="F"
       chamfer_steps="1"
       flexible="false"
       use_knot_distance="true"
       apply_no_radius="true"
       apply_with_radius="true"
       only_selected="false"
       hide_knots="false" />
    <inkscape:path-effect
       effect="fillet_chamfer"
       id="path-effect27-1"
       is_visible="true"
       lpeversion="1"
       nodesatellites_param="F,0,0,1,0,42.897125,0,1 @ F,0,0,1,0,0,0,1 @ F,0,0,1,0,0,0,1 @ F,0,1,1,0,42.897125,0,1 @ F,0,0,1,0,0,0,1 | F,0,0,1,0,0,0,1 @ F,0,0,1,0,0,0,1 @ F,0,0,1,0,0,0,1 @ F,0,0,1,0,0,0,1 @ F,0,0,1,0,0,0,1"
       radius="0"
       unit="px"
       method="auto"
       mode="F"
       chamfer_steps="1"
       flexible="false"
       use_knot_distance="true"
       apply_no_radius="true"
       apply_with_radius="true"
       only_selected="false"
       hide_knots="false" />
    <inkscape:path-effect
       effect="fillet_chamfer"
       id="path-effect27-1-0"
       is_visible="true"
       lpeversion="1"
       nodesatellites_param="F,0,0,1,0,42.897125,0,1 @ F,0,0,1,0,0,0,1 @ F,0,0,1,0,0,0,1 @ F,0,1,1,0,42.897125,0,1 @ F,0,0,1,0,0,0,1 | F,0,0,1,0,0,0,1 @ F,0,0,1,0,0,0,1 @ F,0,0,1,0,0,0,1 @ F,0,0,1,0,0,0,1 @ F,0,0,1,0,0,0,1"
       radius="0"
       unit="px"
       method="auto"
       mode="F"
       chamfer_steps="1"
       flexible="false"
       use_knot_distance="true"
       apply_no_radius="true"
       apply_with_radius="true"
       only_selected="false"
       hide_knots="false" />
  </defs>
  <path
     id="path16"
     style="fill:#000000;stroke:none;stroke-width:1.00157"
     d="m 1054.7121,363.28277 c -5.1391,9e-5 -9.3051,5.85112 -9.3047,13.06836 v 10.88476 0.12891 h 0.01 c 0.034,55.6703 22.6387,107.09568 59.3125,134.93359 36.7063,27.85886 81.9304,27.85886 118.6367,0 14.1684,-10.85847 26.4703,-25.46072 36.1289,-42.88476 6.516,4.64138 14.301,7.16819 22.3008,7.23828 21.554,-3.9e-4 39.0269,-17.4733 39.0273,-39.02734 7e-4,-21.5548 -17.8149,-38.98991 -39.3697,-38.9903 -0.1192,0.0131 1.2254,-21.51032 1.2352,-32.28316 4e-4,-7.22146 -4.1703,-13.07425 -9.3124,-13.06836 z m 5.4277,33.76367 h 207.8164 c 0,12.45572 -1.5224,23.52114 -2.459,29.28325 v 0 c -2.8948,17.328 -7.6834,31.52526 -14.4257,45.2832 v 0.002 c -8.7762,17.70085 -20.6714,32.79782 -35.0683,43.72461 -32.1492,24.4001 -71.7572,24.40009 -103.9063,0 -32.1491,-24.4001 -51.9551,-69.49278 -51.9551,-118.29297 z m 248.8184,50.37891 c 3e-4,14.89848 -12.0898,26.9763 -27.0039,26.97656 -6.1168,-0.0818 -12.0245,-2.23582 -16.7559,-6.10937 v 0 c 6.8325,-14.68511 11.7683,-30.75592 14.6074,-47.56055 v 0 c 10.3584,-1.79035 29.1528,7.01664 29.1524,26.69336 z"
     sodipodi:nodetypes="ccccccccccccccccccccssccccccccc"
     inkscape:export-filename="path16.svg"
     inkscape:export-xdpi="96"
     inkscape:export-ydpi="96" />
  <g
     inkscape:label="Layer 1"
     inkscape:groupmode="layer"
     id="layer1">
    <path
       id="path6"
       style="fill:#000000;stroke:none;stroke-width:0.565955"
       d="m 67.829749,375.30241 v 14.46331 h -0.02656 c 1.33e-4,55.35056 17.53188,106.49647 45.991201,134.17157 28.45915,27.67497 63.52217,27.67497 91.98131,0 10.07534,-9.87646 46.66452,-49.3154 45.99121,-134.17157 h -0.0266 v -14.46331 z m 21.915133,32.94168 h 70.040758 70.03975 c -0.002,36.63448 -10.10749,71.18884 -27.35063,93.5176 l -18.29961,-35.4889 -14.24253,29.98501 -22.68221,-65.85025 -29.05239,72.6134 C 100.32969,480.81238 89.772738,445.64736 89.744882,408.24409 Z"
       sodipodi:nodetypes="cccscccccccccccccc"
       inkscape:path-effect="#path-effect13"
       inkscape:original-d="m 67.829749,375.30241 v 14.46331 h -0.02656 c 1.33e-4,55.35056 17.53188,106.49647 45.991201,134.17157 28.45915,27.67497 63.52217,27.67497 91.98131,0 10.07534,-9.87646 46.66452,-49.3154 45.99121,-134.17157 h -0.0266 v -14.46331 z m 21.915133,32.94168 h 70.040758 70.03975 c -0.002,36.63448 -10.10749,71.18884 -27.35063,93.5176 l -18.29961,-35.4889 -14.24253,29.98501 -22.68221,-65.85025 -29.05239,72.6134 C 100.32969,480.81238 89.772738,445.64736 89.744882,408.24409 Z" />
    <circle
       style="fill:#000000;stroke:none;stroke-width:0.358925"
       id="path12"
       cx="196.14548"
       cy="434.99881"
       r="18.864286" />
    <path
       d="M 537.87147,332.4826 H 378.87146 c -20,0 -26,2 -26,28 2,77 12,95 30,117 19,21 42,28 72.00001,28 26,0 53,-12 71,-32 10,-10 17,-21 21,-32 12,2 53,4 53,-38 0,-42 -45,-43 -47,-43 v -15 c 0,-12 -10,-13 -15,-13 z m -15,18 a 4,4 0 1 1 0,8 4,4 0 0 1 0,-8 z m -111.00001,0 a 4,4 0 1 1 0,8 4,4 0 0 1 0,-8 z m -14,0 a 4.5,4.5 0 1 1 0,9 4.5,4.5 0 0 1 0,-9 z m -15,1 a 4,4 0 1 1 0,8 4,4 0 0 1 0,-8 z m -10,23 h 161.00001 v 4 c 1,15 6,62 -30,90 -43,34 -81.00001,20 -105.00001,-3 -24,-22 -26,-64 -26,-91 z m 187.00001,0 c 9,0 25,4 25,30 0,29 -28,25 -36,23 3,-15 4,-33 4,-53 z"
       id="path1" />
    <circle
       cx="501.27145"
       cy="407.78259"
       r="24.4"
       id="circle1" />
    <path
       d="m 404.87146,259.4826 c -3,0 -4,2 -7,3 -6,5 6,18 6,18 8,11 -4,21 -4,21 0,0 -10,11 0,20 9,9 14,-4 19,-15 6,-10 9,-17 2,-33 -5,-10 -11,-14 -16,-14 z"
       id="path2" />
    <path
       d="m 447.87147,259.4826 c -3.00001,0 -4.00001,2 -7.00001,3 -6,5 6,18 6,18 8.00001,11 -4,21 -4,21 0,0 -10,11 0,20 9.00001,9 14.00001,-4 19.00001,-15 6,-10 9,-17 2,-33 -6,-10 -11,-14 -16,-14 z"
       id="path3" />
    <path
       d="m 489.87147,259.4826 -7,3 c -6,5 6,18 6,18 8,11 -4,21 -4,21 0,0 -10,11 0,20 10,9 14,-4 19,-15 6,-10 9,-17 2,-33 -5,-10 -10,-14 -16,-14 z"
       id="path4" />
    <path
       d="m 135.46179,217.85308 -6.85832,3.07108 c -15,4 -16,4 -30.000003,4 -3,-1 -15,-2 -24,-7 -11.344327,-6.21411 -21.152392,-15.02937 -28.502917,-25.65449 -0.904052,-1.3068 -1.222844,-3.6278 -0.763589,-5.14911 l 0.266506,-0.88282 31,-58.31358 22,55 16.000003,-29 28.23491,55.25431 c 1.35156,2.93177 -3.80074,7.07338 -7.37659,8.67461 z"
       id="path5"
       sodipodi:nodetypes="ccccccccccc"
       inkscape:path-effect="#path-effect1"
       inkscape:original-d="m 141.93645,214.95379 -13.33298,5.97037 c -15,4 -16,4 -30.000003,4 -3,-1 -15,-2 -24,-7 C 62.417454,211.249 52.004125,201.57239 44.505407,189.87513 l 1.09806,-3.63739 31,-58.31358 22,55 16.000003,-29 28.23491,55.25431 c 0.75485,1.63739 1.22579,4.50054 -0.90193,5.77532 z"
       transform="translate(347.268,254.55844)" />
    <rect
       style="fill:#1a1a1a;stroke:none;stroke-width:1.00157"
       id="rect6"
       width="506.4584"
       height="313.00851"
       x="470.68948"
       y="-269.86197" />
    <path
       style="display:none;fill:#666666;stroke:none;stroke-width:1.0667"
       id="path8"
       sodipodi:type="arc"
       sodipodi:cx="-223.46449"
       sodipodi:cy="1478.2386"
       sodipodi:rx="68.647903"
       sodipodi:ry="90.659355"
       sodipodi:start="0"
       sodipodi:end="3.4287016"
       sodipodi:arc-type="arc"
       d="m -154.81659,1478.2386 a 68.647903,90.659355 0 0 1 -40.16196,82.4856 68.647903,90.659355 0 0 1 -73.49295,-14.0296 68.647903,90.659355 0 0 1 -20.8309,-94.1289"
       transform="matrix(-0.03964726,-0.99921374,0.99894361,0.04595276,0,0)"
       sodipodi:open="true" />
    <path
       d="m 113.66666,304.55556 c -3,0 -4,2 -7,3 -6,5 6,18 6,18 8,11 -4,21 -4,21 0,0 -9.999997,11 0,20 9,9 14,-4 19,-15 6,-10 9,-17 2,-33 -5,-10 -11,-14 -16,-14 z"
       id="path2-1" />
    <path
       d="m 156.66668,304.55556 c -3.00001,0 -4.00001,2 -7.00001,3 -6,5 6,18 6,18 8.00001,11 -4,21 -4,21 0,0 -10,11 0,20 9.00001,9 14.00001,-4 19.00001,-15 6,-10 9,-17 2,-33 -6,-10 -11,-14 -16,-14 z"
       id="path3-8" />
    <path
       d="m 198.66668,304.55556 -7,3 c -6,5 6,18 6,18 8,11 -4,21 -4,21 0,0 -10,11 0,20 10,9 14,-4 19,-15 6,-10 9,-17 2,-33 -5,-10 -10,-14 -16,-14 z"
       id="path4-7" />
    <path
       style="fill:#000000;stroke:none;stroke-width:1.14835"
       id="path13"
       sodipodi:type="arc"
       sodipodi:cx="733.60858"
       sodipodi:cy="348.52399"
       sodipodi:rx="118.6368"
       sodipodi:ry="155.95633"
       sodipodi:start="0"
       sodipodi:end="3.1415927"
       sodipodi:open="true"
       sodipodi:arc-type="arc"
       d="m 852.24538,348.52399 a 118.6368,155.95633 0 0 1 -59.3184,135.06214 118.6368,155.95633 0 0 1 -118.6368,0 118.6368,155.95633 0 0 1 -59.3184,-135.06214" />
    <path
       id="path13-2"
       d="m 837.51602,358.3331 c 0,48.8002 -19.80465,93.89343 -51.95374,118.29353 -32.14908,24.4001 -71.75839,24.40009 -103.90748,0 -32.14908,-24.4001 -51.95373,-69.49334 -51.95373,-118.29353"
       style="fill:#ff0000;stroke:none;stroke-width:1.00578" />
    <path
       id="rect14"
       transform="matrix(1,0,0,1.4043687,-119.63358,-212.59452)"
       d="M 743.91023,382.49561 H 962.5741 a 9.3048158,9.3048158 45 0 1 9.30482,9.30482 v 7.84267 H 734.60541 l 0,-7.84267 a 9.3048158,9.3048158 135 0 1 9.30482,-9.30482 z"
       style="fill:#000000;stroke:none;stroke-width:1.01672"
       inkscape:path-effect="#path-effect5"
       inkscape:original-d="M 734.60541,382.49561 H 971.87892 V 399.6431 H 734.60541 Z" />
    <path
       style="fill:#000000;stroke:none;stroke-width:1.14835"
       id="path13-9"
       sodipodi:type="arc"
       sodipodi:cx="615.63678"
       sodipodi:cy="711.01971"
       sodipodi:rx="118.6368"
       sodipodi:ry="155.95633"
       sodipodi:start="0"
       sodipodi:end="3.1415927"
       sodipodi:open="true"
       sodipodi:arc-type="arc"
       d="m 734.27358,711.01971 a 118.6368,155.95633 0 0 1 -59.3184,135.06215 118.6368,155.95633 0 0 1 -118.6368,0 118.6368,155.95633 0 0 1 -59.3184,-135.06215" />
    <path
       style="fill:#ff0000;stroke:none;stroke-width:1.00578"
       id="path13-2-2"
       sodipodi:type="arc"
       sodipodi:cx="615.63672"
       sodipodi:cy="720.82886"
       sodipodi:rx="103.90748"
       sodipodi:ry="136.5936"
       sodipodi:start="0"
       sodipodi:end="3.1415927"
       sodipodi:open="true"
       sodipodi:arc-type="arc"
       d="m 719.5442,720.82886 a 103.90748,136.5936 0 0 1 -51.95374,118.29352 103.90748,136.5936 0 0 1 -103.90748,0 103.90748,136.5936 0 0 1 -51.95374,-118.29352" />
    <rect
       style="fill:#000000;stroke:none;stroke-width:1.01672"
       id="rect14-2"
       width="237.27351"
       height="17.147497"
       x="497.00003"
       y="694" />
    <circle
       style="fill:#0000ff;stroke:#000000;stroke-width:1.00157"
       id="path7"
       cx="851.35968"
       cy="408.9115"
       r="39.028004" />
  </g>
  <circle
     style="fill:#f9f9f9;stroke:none;stroke-width:1.00157"
     id="path17"
     cx="1074.8148"
     cy="380.8754"
     r="8.8754063" />
  <circle
     style="fill:#f9f9f9;stroke:none;stroke-width:1.00157"
     id="path17-6"
     cx="1100.0525"
     cy="380.8754"
     r="8.8754063" />
  <circle
     style="fill:#f9f9f9;stroke:none;stroke-width:1.00157"
     id="path17-8"
     cx="1125.2903"
     cy="380.8754"
     r="8.8754063" />
  <circle
     style="fill:#f9f9f9;stroke:none;stroke-width:1.00157"
     id="path17-8-0"
     cx="1254.8971"
     cy="380.8754"
     r="8.8754063" />
  <path
     style="fill:#000000;stroke:none;stroke-width:1.14835"
     id="path13-92"
     sodipodi:type="arc"
     sodipodi:cx="1175.8007"
     sodipodi:cy="620.03986"
     sodipodi:rx="118.6368"
     sodipodi:ry="155.95633"
     sodipodi:start="0"
     sodipodi:end="3.1415927"
     sodipodi:open="true"
     sodipodi:arc-type="arc"
     d="m 1294.4375,620.03986 a 118.6368,155.95633 0 0 1 -59.3184,135.06214 118.6368,155.95633 0 0 1 -118.6368,0 118.6368,155.95633 0 0 1 -59.3184,-135.06214" />
  <path
     id="path13-2-28"
     d="m 1261.8052,643.61618 c 0,40.39215 -16.3924,77.71602 -43.0023,97.91208 -26.6099,20.19607 -59.3948,20.19606 -86.0047,0 -26.6099,-20.19606 -43.0023,-57.51994 -43.0023,-97.91208"
     style="fill:#ff0000;stroke:none;stroke-width:0.832488" />
  <path
     id="rect14-9"
     transform="matrix(1,0,0,0.67238286,322.55845,351.45443)"
     d="M 743.91023,382.49561 H 962.5741 a 9.3048158,9.3048158 45 0 1 9.30482,9.30482 v 7.84267 H 734.60541 l 0,-7.84267 a 9.3048158,9.3048158 135 0 1 9.30482,-9.30482 z"
     style="fill:#000000;stroke:none;stroke-width:1.01672"
     inkscape:path-effect="#path-effect5-7"
     inkscape:original-d="M 734.60541,382.49561 H 971.87892 V 399.6431 H 734.60541 Z" />
  <circle
     style="fill:#0000ff;stroke:#000000;stroke-width:1.00157"
     id="path7-7"
     cx="1293.5518"
     cy="680.42737"
     r="39.028004" />
  <path
     id="path18"
     style="fill:#000000;stroke:none;stroke-width:1.00157"
     d="m 1841.6674,1001.1552 c 8.4941,142.8206 59.0694,271.4557 136.7974,344.0675 85.4376,79.8137 190.7011,79.8137 276.1387,0 77.728,-72.6117 128.3034,-201.2469 136.7975,-344.0675 1.4063,-23.64618 -17.9348,-42.872 -41.6262,-42.872 h -233.2416 -233.2396 c -23.6914,0 -43.0325,19.22582 -41.6262,42.872 z m 107.0631,44.7725 h 167.8027 167.8027 c 10e-5,97.0009 -31.9825,186.6337 -83.9004,235.1348 -51.9184,48.5005 -115.8843,48.5005 -167.8027,0 -51.9186,-48.5004 -83.902,-138.1332 -83.9023,-235.1348 z"
     inkscape:original-d="m 1840.3965,958.2832 a 276.13785,446.80042 0 0 0 138.0683,386.9395 276.13785,446.80042 0 0 0 276.1387,0 276.13785,446.80042 0 0 0 138.0684,-386.9395 h -276.1387 z m 108.334,87.6445 h 167.8027 167.8027 a 167.80312,271.51114 0 0 1 -83.9004,235.1348 167.80312,271.51114 0 0 1 -167.8027,0 167.80312,271.51114 0 0 1 -83.9023,-235.1348 z"
     inkscape:path-effect="#path-effect27" />
  <circle
     style="fill:#800080;stroke:none;stroke-width:0.852617"
     id="path19"
     cx="2417.5017"
     cy="1147.7306"
     r="133.16495" />
  <ellipse
     style="fill:#0000ff;stroke:none;stroke-width:0.634298"
     id="path20"
     cy="1147.7306"
     cx="2417.5017"
     rx="76.584175"
     ry="76.58419" />
  <path
     id="path18-4"
     style="fill:#000000;stroke:none;stroke-width:1.00157"
     d="M 1883.2945 958.2832 C 1859.6031 958.2832 1840.2612 977.50813 1841.6676 1001.1543 C 1850.1616 1143.9749 1900.7365 1272.6109 1978.4644 1345.2227 C 2063.902 1425.0364 2169.1655 1425.0364 2254.6031 1345.2227 C 2272.8262 1328.199 2289.4909 1307.9947 2304.5367 1285.3516 A 133.16495 133.16495 0 0 0 2380.8922 1309.7422 A 133.16495 133.16495 0 0 0 2514.0562 1176.5762 A 133.16495 133.16495 0 0 0 2387.4723 1043.6484 C 2389.1582 1029.6384 2390.5472 1015.4926 2391.4 1001.1543 C 2392.8063 977.50813 2373.4664 958.2832 2349.775 958.2832 L 2116.5328 958.2832 L 1883.2945 958.2832 z M 1948.7301 1045.9277 L 2116.5328 1045.9277 L 2284.3355 1045.9277 C 2284.3356 1142.9287 2252.353 1232.5614 2200.4351 1281.0625 C 2148.5168 1329.563 2084.5508 1329.563 2032.6324 1281.0625 C 1980.7138 1232.5621 1948.7304 1142.9293 1948.7301 1045.9277 z M 2384.6754 1064.2793 C 2384.578 1064.9281 2384.4737 1065.5728 2384.3746 1066.2207 C 2384.4743 1065.5732 2384.5775 1064.9277 2384.6754 1064.2793 z M 2381.1265 1085.666 C 2380.266 1090.38 2379.3474 1095.0597 2378.3922 1099.7168 C 2379.3527 1095.0627 2380.26 1090.3767 2381.1265 1085.666 z M 2376.4371 1108.9297 C 2375.0916 1115.0322 2373.6751 1121.0895 2372.1637 1127.0801 A 50.880173 50.880184 0 0 1 2380.8922 1125.6973 A 50.880173 50.880184 0 0 1 2431.7711 1176.5762 A 50.880173 50.880184 0 0 1 2380.8922 1227.457 A 50.880173 50.880184 0 0 1 2344.1539 1210.9082 C 2344.1227 1210.9818 2344.0894 1211.0533 2344.0582 1211.127 C 2357.4882 1179.4813 2368.4092 1145.1744 2376.4371 1108.9297 z M 2335.4488 1230.3047 C 2335.2655 1230.6913 2335.0802 1231.0752 2334.8961 1231.4609 C 2335.0803 1231.0753 2335.2654 1230.6912 2335.4488 1230.3047 z M 2326.0035 1249.1484 C 2325.5185 1250.0643 2325.0225 1250.9653 2324.5328 1251.875 C 2325.0229 1250.9657 2325.5182 1250.0638 2326.0035 1249.1484 z M 2315.6715 1267.5937 C 2314.7511 1269.1468 2313.8077 1270.6667 2312.8726 1272.1992 C 2313.8081 1270.6671 2314.7506 1269.1462 2315.6715 1267.5937 z "
     transform="translate(-44.5953,504.7168)"
     inkscape:export-filename="path18-4.svg"
     inkscape:export-xdpi="96"
     inkscape:export-ydpi="96" />
  <path
     id="path18-4-0"
     style="fill:#000000;stroke:none;stroke-width:1.00157"
     d="m 164.6991,1079 c -23.6914,0 -43.0333,19.2249 -41.6269,42.8711 8.494,142.8206 59.0689,271.4566 136.7968,344.0684 85.4376,79.8137 190.7011,79.8137 276.1387,0 18.2231,-17.0237 34.8878,-37.228 49.9336,-59.8711 a 133.16495,133.16495 0 0 0 76.3555,24.3906 133.16495,133.16495 0 0 0 133.164,-133.166 133.16495,133.16495 0 0 0 -126.5839,-132.9278 c 1.6859,-14.01 3.0749,-28.1558 3.9277,-42.4941 C 674.2109,1098.2249 654.871,1079 631.1796,1079 H 397.9374 Z m 65.4356,87.6445 h 167.8027 167.8027 c 10e-5,97.001 -31.9825,186.6337 -83.9004,235.1348 -51.9183,48.5005 -115.8843,48.5005 -167.8027,0 -51.9186,-48.5004 -83.902,-138.1332 -83.9023,-235.1348 z m 435.9453,18.3516 c -0.097,0.6488 -0.2017,1.2935 -0.3008,1.9414 0.1,-0.6475 0.2029,-1.293 0.3008,-1.9414 z m -3.5489,21.3867 c -0.8605,4.714 -1.7791,9.3937 -2.7343,14.0508 0.9605,-4.6541 1.8678,-9.3401 2.7343,-14.0508 z m -4.6894,23.2637 c -1.3455,6.1025 -2.762,12.1598 -4.2734,18.1504 a 50.880173,50.880184 0 0 1 8.7285,-1.3828 50.880173,50.880184 0 0 1 50.8789,50.8789 50.880173,50.880184 0 0 1 -50.8789,50.8808 50.880173,50.880184 0 0 1 -36.7383,-16.5488 c -0.031,0.074 -0.064,0.1451 -0.096,0.2188 13.43,-31.6457 24.351,-65.9526 32.3789,-102.1973 z m -40.9883,121.375 c -0.1833,0.3866 -0.3686,0.7705 -0.5527,1.1562 0.1842,-0.3856 0.3693,-0.7697 0.5527,-1.1562 z m -9.4453,18.8437 c -0.485,0.9159 -0.981,1.8169 -1.4707,2.7266 0.4901,-0.9093 0.9854,-1.8112 1.4707,-2.7266 z m -10.332,18.4453 c -0.9204,1.5531 -1.8638,3.073 -2.7989,4.6055 0.9355,-1.5321 1.878,-3.053 2.7989,-4.6055 z"
     inkscape:export-filename="path18-4.svg"
     inkscape:export-xdpi="96"
     inkscape:export-ydpi="96" />
</svg>
