<?xml version="1.0" encoding="UTF-8" standalone="no"?>
<!-- Created with Inkscape (http://www.inkscape.org/) -->

<svg
   width="256"
   height="256"
   viewBox="0 0 256 256"
   version="1.1"
   id="svg1"
   inkscape:version="1.4 (e7c3feb100, 2024-10-09)"
   sodipodi:docname="fav2.svg"
   inkscape:dataloss="true"
   xmlns:inkscape="http://www.inkscape.org/namespaces/inkscape"
   xmlns:sodipodi="http://sodipodi.sourceforge.net/DTD/sodipodi-0.dtd"
   xmlns="http://www.w3.org/2000/svg"
   xmlns:svg="http://www.w3.org/2000/svg">
  <sodipodi:namedview
     id="namedview1"
     pagecolor="#ffffff"
     bordercolor="#000000"
     borderopacity="0.25"
     inkscape:showpageshadow="2"
     inkscape:pageopacity="0.0"
     inkscape:pagecheckerboard="0"
     inkscape:deskcolor="#d1d1d1"
     inkscape:document-units="px"
     showborder="true"
     showgrid="true"
     inkscape:zoom="0.45068359"
     inkscape:cx="159.75731"
     inkscape:cy="116.48971"
     inkscape:window-width="1920"
     inkscape:window-height="1176"
     inkscape:window-x="0"
     inkscape:window-y="24"
     inkscape:window-maximized="1"
     inkscape:current-layer="layer2" />
  <defs
     id="defs1">
    <inkscape:path-effect
       effect="fillet_chamfer"
       id="path-effect15"
       is_visible="true"
       lpeversion="1"
       nodesatellites_param="F,0,0,1,0,14.699892,0,1 @ F,0,0,1,0,14.699892,0,1 @ F,0,0,1,0,14.699892,0,1 @ F,0,0,1,0,14.699892,0,1 @ F,0,0,1,0,14.699892,0,1 @ F,0,0,1,0,14.699892,0,1 @ F,0,0,1,0,14.699892,0,1 @ F,0,0,1,0,14.699892,0,1"
       radius="0"
       unit="px"
       method="auto"
       mode="F"
       chamfer_steps="1"
       flexible="false"
       use_knot_distance="true"
       apply_no_radius="true"
       apply_with_radius="true"
       only_selected="false"
       hide_knots="false" />
    <inkscape:path-effect
       effect="fillet_chamfer"
       id="path-effect14"
       is_visible="true"
       lpeversion="1"
       nodesatellites_param="F,0,0,1,0,0,0,1 @ F,0,0,1,0,0,0,1 @ F,0,0,1,0,0,0,1 @ F,0,0,1,0,0,0,1 @ F,0,0,1,0,4.5958392,0,1 @ F,0,0,1,0,0,0,1 @ F,0,0,1,0,0,0,1"
       radius="0"
       unit="px"
       method="auto"
       mode="F"
       chamfer_steps="1"
       flexible="false"
       use_knot_distance="true"
       apply_no_radius="true"
       apply_with_radius="true"
       only_selected="false"
       hide_knots="false" />
    <inkscape:path-effect
       effect="fillet_chamfer"
       id="path-effect13"
       is_visible="true"
       lpeversion="1"
       nodesatellites_param="F,0,0,1,0,1.8902556,0,1 @ F,0,0,1,0,0,0,1 @ F,0,0,1,0,0,0,1 @ F,0,0,1,0,0,0,1 @ F,0,0,1,0,0,0,1 @ F,0,0,1,0,1.5950905,0,1 @ F,0,0,1,0,0,0,1 @ F,0,0,1,0,0,0,1 @ F,0,0,1,0,0,0,1"
       radius="0"
       unit="px"
       method="auto"
       mode="F"
       chamfer_steps="1"
       flexible="false"
       use_knot_distance="true"
       apply_no_radius="true"
       apply_with_radius="true"
       only_selected="false"
       hide_knots="false" />
    <inkscape:path-effect
       effect="fillet_chamfer"
       id="path-effect12"
       is_visible="true"
       lpeversion="1"
       nodesatellites_param="F,0,0,1,0,1.6424896,0,1 @ F,0,0,1,0,0,0,1 @ F,0,0,1,0,0,0,1 @ F,0,0,1,0,0.84842973,0,1 @ F,0,0,1,0,0,0,1 @ F,0,0,1,0,0,0,1 @ F,0,0,1,0,0,0,1"
       radius="0"
       unit="px"
       method="auto"
       mode="F"
       chamfer_steps="1"
       flexible="false"
       use_knot_distance="true"
       apply_no_radius="true"
       apply_with_radius="true"
       only_selected="false"
       hide_knots="false" />
    <inkscape:path-effect
       effect="fillet_chamfer"
       id="path-effect11"
       is_visible="true"
       lpeversion="1"
       nodesatellites_param="F,0,0,1,0,0,0,1 @ F,0,0,1,0,0,0,1 @ F,0,0,1,0,0,0,1 @ F,0,0,1,0,0,0,1 @ F,0,0,1,0,0,0,1 @ F,0,0,1,0,0,0,1 @ F,0,0,1,0,0,0,1"
       radius="0"
       unit="px"
       method="auto"
       mode="F"
       chamfer_steps="1"
       flexible="false"
       use_knot_distance="true"
       apply_no_radius="true"
       apply_with_radius="true"
       only_selected="false"
       hide_knots="false" />
    <inkscape:path-effect
       effect="fillet_chamfer"
       id="path-effect4"
       is_visible="true"
       lpeversion="1"
       nodesatellites_param="F,0,0,1,0,0,0,1 @ F,0,0,1,0,6.8627082,0,1 @ F,0,0,1,0,0,0,1 @ F,0,0,1,0,0,0,1 @ F,0,0,1,0,0,0,1 @ F,0,0,1,0,0,0,1"
       radius="0"
       unit="px"
       method="auto"
       mode="F"
       chamfer_steps="1"
       flexible="false"
       use_knot_distance="true"
       apply_no_radius="true"
       apply_with_radius="true"
       only_selected="false"
       hide_knots="false" />
    <inkscape:path-effect
       effect="fillet_chamfer"
       id="path-effect4-5"
       is_visible="true"
       lpeversion="1"
       nodesatellites_param="F,0,0,1,0,0,0,1 @ F,0,0,1,0,6.8627082,0,1 @ F,0,0,1,0,0,0,1 @ F,0,0,1,0,0,0,1 @ F,0,0,1,0,0,0,1 @ F,0,0,1,0,0,0,1"
       radius="0"
       unit="px"
       method="auto"
       mode="F"
       chamfer_steps="1"
       flexible="false"
       use_knot_distance="true"
       apply_no_radius="true"
       apply_with_radius="true"
       only_selected="false"
       hide_knots="false" />
    <inkscape:path-effect
       effect="fillet_chamfer"
       id="path-effect4-5-6"
       is_visible="true"
       lpeversion="1"
       nodesatellites_param="F,0,0,1,0,0,0,1 @ F,0,0,1,0,6.8627082,0,1 @ F,0,0,1,0,0,0,1 @ F,0,0,1,0,0,0,1 @ F,0,0,1,0,0,0,1 @ F,0,0,1,0,0,0,1"
       radius="0"
       unit="px"
       method="auto"
       mode="F"
       chamfer_steps="1"
       flexible="false"
       use_knot_distance="true"
       apply_no_radius="true"
       apply_with_radius="true"
       only_selected="false"
       hide_knots="false" />
  </defs>
  <g
     inkscape:label="Layer 1"
     inkscape:groupmode="layer"
     id="layer1">
  
<path
   id="path2-3"
   style="fill:#000000;stroke:none;stroke-width:1.4147"
   d="m 191.31663,79.584106 c -1.65274,-0.04489 -2.756,0.08276 -2.756,0.08276 H 32.249556 C 12.269734,79.666866 6.3917662,82.0189 6,107.87513 c 2.3505677,76.98108 12.030852,95.60389 30.084226,116.66225 18.783191,21.90965 42.392444,28.37104 71.774544,28.37104 26.05212,0 53.1894,-11.93434 70.99104,-31.42221 9.98006,-10.92539 16.66596,-21.59681 21.15414,-32.86231 12.24385,2.22299 53.13915,4.0675 53.13915,-37.27078 0,-42.84461 -44.69854,-43.36414 -47.1431,-43.35312 -0.0127,-4.95782 0.18902,-9.724041 0.18902,-15.093867 0,-11.482535 -9.91423,-13.187348 -14.87246,-13.32203 z m -15.64765,18.061571 c 2.34027,4e-6 4.23744,1.89717 4.23744,4.237443 1e-5,2.34028 -1.89716,4.23746 -4.23744,4.23746 -2.34029,1e-5 -4.23747,-1.89717 -4.23746,-4.23746 0,-2.340281 1.89718,-4.23745 4.23746,-4.237443 z M 64.891149,97.921553 c 2.340277,10e-7 4.237446,1.89717 4.237447,4.237447 10e-7,2.34028 -1.897169,4.23745 -4.237447,4.23745 -2.340279,0 -4.23745,-1.89717 -4.237449,-4.23745 10e-7,-2.340278 1.897171,-4.237447 4.237449,-4.237447 z M 50.989782,98.03191 c 2.340279,0 4.237449,1.897171 4.237448,4.23745 1e-6,2.34028 -1.897169,4.23745 -4.237448,4.23745 -2.340279,0 -4.237449,-1.89717 -4.237448,-4.23745 -10e-7,-2.340279 1.897169,-4.23745 4.237448,-4.23745 z m -14.596575,0.521404 c 2.340277,0 4.237448,1.897166 4.237449,4.237446 7e-6,2.34028 -1.897166,4.23746 -4.237449,4.23746 -2.340283,0 -4.237455,-1.89718 -4.237448,-4.23746 10e-7,-2.34028 1.897171,-4.237446 4.237448,-4.237446 z m -10.0062,23.435616 H 187.09705 c 0,0 -0.0303,0.49647 0.0586,4.16309 0.34818,14.34904 5.41053,61.76196 -30.53573,90.23886 -42.66063,33.79608 -80.706076,19.38997 -104.529533,-3.04841 -23.82347,-22.43837 -25.70342,-64.41289 -25.70342,-91.35354 z M 212.5617,122 c 9.11559,-0.1818 25.34755,4.14505 25.34755,29.90764 0,29.47981 -28.33992,24.89221 -36.39349,22.99698 3.65245,-14.90724 4.47078,-33.3578 4.62919,-52.90462 0.68126,-0.11159 4.08525,0.0465 6.41675,0 z"
   sodipodi:nodetypes="ccscssscscsccssssssssssssssssssssscssscssccss" />
<circle
   style="fill:#000000;stroke:none;stroke-width:2.71462"
   id="path5-5"
   cx="154.40906"
   cy="155.25795"
   r="24.39324" />
<path
   d="M 65.606116,4.9998666 C 60.074742,3.1215168 55.440047,5.9738817 53.545611,8.7088311 c -4.912904,6.7961449 7.0723,21.5494879 7.0723,21.5494879 7.274502,9.753016 -9.916064,19.058565 -9.916064,19.058565 0,0 -6.374488,7.735847 -3.153449,13.729833 1.18838,2.211439 5.122717,3.901098 7.620873,4.343065 10.06483,1.780642 15.418654,-2.21431 22.726645,-12.810879 6.268115,-13.08927 6.363963,-20.002666 1.918248,-32.401638 C 73.752198,9.6067264 71.364867,6.9554295 65.606116,4.9998666 Z"
   style="fill:#000000;stroke-width:0.808571;paint-order:normal"
   id="path1"
   sodipodi:nodetypes="sccccccs"
   inkscape:path-effect="#path-effect14"
   inkscape:original-d="M 65.606116,4.9998666 C 60.074742,3.1215168 55.440047,5.9738817 53.545611,8.7088311 c -4.912904,6.7961449 7.0723,21.5494879 7.0723,21.5494879 7.274502,9.753016 -9.916064,19.058565 -9.916064,19.058565 0,0 -9.140455,11.092523 0,17.003842 13.08771,3.829072 18.874625,0.321349 27.194069,-11.741823 6.268115,-13.08927 6.363963,-20.002666 1.918248,-32.401638 C 73.752198,9.6067264 71.364867,6.9554295 65.606116,4.9998666 Z" />
<path
   d="m 100.98767,7 c -2.615141,0 -4.358571,1.5000064 -6.973692,2.9999961 -6.102,4.5000219 6.101982,18.0000499 6.101982,18.0000499 7.84541,10.500033 -4.358571,21.00006 -4.358571,21.00006 0,0 -9.588839,11.250029 0,19.50005 9.588831,9.000024 13.947401,-3.750009 19.177671,-14.250035 6.102,-10.500035 8.71712,-17.250049 1.74343,-33.00009 C 111.44822,10.749999 106.21794,7 100.98767,7 Z"
   style="fill:#000000;stroke-width:0.808571;paint-order:normal"
   id="path1-0" />
<path
   d="m 143.30232,7 c -2.61514,0 -4.35857,1.500007 -6.97369,2.9999957 -6.102,4.5000223 6.10198,18.0000503 6.10198,18.0000503 7.8454,10.500033 -4.35857,21.00006 -4.35857,21.00006 0,0 -9.58884,11.250029 0,19.50005 9.58883,9.000024 13.9474,-3.750009 19.17767,-14.250035 6.102,-10.500035 8.71712,-17.250049 1.74343,-33.00009 C 153.76287,10.749999 148.53258,7 143.30232,7 Z"
   style="fill:#000000;stroke-width:0.808571;paint-order:normal"
   id="path1-2" />
<path
   style="fill:#000000;stroke:none;stroke-width:1.00157"
   d="m 142.25325,222.16764 c -3.5826,1.75809 -11.84098,5.74598 -14.83093,6.64079 -14.98685,4.48514 -15.95128,4.57929 -30.215855,3.71723 -3.608771,-0.2181 -14.817537,-2.02698 -24.254987,-6.78011 -10.346405,-5.21092 -18.957485,-13.77308 -22.957544,-18.28597 -4.340868,-4.89739 -5.961164,-7.7002 -6.55075,-9.2085 -0.316855,-0.8106 0.02631,-2.18225 0.428881,-2.96583 l 30.641646,-59.64161 22.838401,55.73231 15.531968,-29.12242 30.18419,57.40386 c 0.48586,0.924 0.12218,2.05034 -0.81502,2.51025 z"
   id="path11"
   sodipodi:nodetypes="cssssccccc"
   inkscape:path-effect="#path-effect13"
   inkscape:original-d="m 143.948,221.33045 c 0,0 -12.66187,6.32165 -16.52568,7.47798 -14.98685,4.48514 -15.95128,4.57929 -30.215855,3.71723 -3.608771,-0.2181 -14.817537,-2.02698 -24.254987,-6.78011 -10.346405,-5.21092 -18.957485,-13.77308 -22.957544,-18.28597 -7.6487,-8.6293 -6.850794,-10.75553 -6.850794,-10.75553 l 31.370571,-61.06041 22.838401,55.73231 15.531968,-29.12242 z"
   transform="translate(2,-6)" />
<path
   style="fill:#000000;stroke:none;stroke-width:1.00157"
   id="rect14"
   width="85.980507"
   height="49.924168"
   x="-91.250267"
   y="-78.769226"
   ry="6.6565547"
   rx="18.582882"
   sodipodi:type="rect"
   d="m -57.967493,-78.769226 h 19.414959 c 8.118526,0 21.712708,-0.798201 29.1011634,2.440107 3.0039022,1.31661 4.1816105,10.797813 4.1816105,18.91634 v 7.211274 c 0,8.118526 -4.7568419,20.012198 -12.3433819,20.974758 -3.42509,0.434555 -12.820866,0.381689 -20.939392,0.381689 h -19.414959 c -8.118526,0 -21.712708,0.7982 -29.101164,-2.440108 -3.003902,-1.316609 -4.18161,-10.797813 -4.18161,-18.916339 v -7.211274 c 0,-8.118527 4.756842,-20.012198 12.343382,-20.974758 3.42509,-0.434556 12.820866,-0.381689 20.939392,-0.381689 z"
   inkscape:path-effect="#path-effect15" />
</g>
  <g
     inkscape:groupmode="layer"
     id="layer2"
     inkscape:label="Layer 2"
     style="display:none">
    <path
       id="path2-3-5"
       style="fill:#000000;stroke:none;stroke-width:1.4147"
       d="m 753.84244,91.877181 c -1.65274,-0.04489 -2.756,0.08276 -2.756,0.08276 H 594.77537 c -19.97983,0 -25.85779,2.352034 -26.24956,28.208259 2.35057,76.98108 12.03085,95.60389 30.08423,116.66225 18.78319,21.90965 42.39244,28.37104 71.77454,28.37104 26.05212,0 53.1894,-11.93434 70.99104,-31.42221 9.98006,-10.92539 16.66596,-21.59681 21.15414,-32.86231 12.24385,2.22299 53.13915,4.0675 53.13915,-37.27078 0,-42.84461 -44.47912,-43.21589 -46.92368,-43.20487 -0.0127,-4.95782 -0.0304,-9.87229 -0.0304,-15.24211 0,-11.482537 -9.91423,-13.18735 -14.87246,-13.322032 z m -15.64765,18.061569 a 4.2374481,4.2374481 0 0 1 4.23744,4.23744 4.2374481,4.2374481 0 0 1 -4.23744,4.23746 4.2374481,4.2374481 0 0 1 -4.23746,-4.23746 4.2374481,4.2374481 0 0 1 4.23746,-4.23744 z m -110.77783,0.27588 a 4.2374481,4.2374481 0 0 1 4.23745,4.23744 4.2374481,4.2374481 0 0 1 -4.23745,4.23745 4.2374481,4.2374481 0 0 1 -4.23745,-4.23745 4.2374481,4.2374481 0 0 1 4.23745,-4.23744 z m -13.90137,0.11035 a 4.2374481,4.2374481 0 0 1 4.23745,4.23745 4.2374481,4.2374481 0 0 1 -4.23745,4.23745 4.2374481,4.2374481 0 0 1 -4.23745,-4.23745 4.2374481,4.2374481 0 0 1 4.23745,-4.23745 z m -14.59657,0.52141 a 4.2374481,4.2374481 0 0 1 4.23745,4.23744 4.2374481,4.2374481 0 0 1 -4.23745,4.23746 4.2374481,4.2374481 0 0 1 -4.23745,-4.23746 4.2374481,4.2374481 0 0 1 4.23745,-4.23744 z M 584.91282,134.282 H 756.9957 c 0,0 8.81068,62.60589 -33.84993,96.40195 -42.66063,33.79608 -86.70608,19.38997 -110.52953,-3.04841 -23.82347,-22.43837 -28.53447,-64.54378 -27.70342,-93.35354 z m 188.17469,1.48146 c 9.11559,-0.1818 27.34755,2.67466 27.34755,28.43725 0,29.47981 -28.33992,24.89221 -36.39349,22.99698 3.65245,-14.90724 4.47078,-31.52601 4.62919,-51.07283 0.68126,-0.11159 2.08525,-0.31491 4.41675,-0.3614 z" />
    <path
       style="fill:#000000;stroke:none;stroke-width:1.00157"
       d="m 379.57056,93.437673 14.04246,-16.094209 c 2.49183,-2.855906 6.23096,-8.645258 9.88065,-9.118147 2.30277,-0.298369 5.15451,0.993308 8.16352,6.30052 6.09084,10.742848 18.26925,19.328901 24.51508,23.730596 19.14893,13.495057 1.79924,16.194077 -6.8921,17.736807 -10.09377,1.79166 -21.27007,2.87319 -37.06271,-7.24253 -8.26607,-5.2947 -14.92488,-10.757064 -12.6469,-15.313037 z"
       id="path4-4-9"
       sodipodi:nodetypes="ccssssc"
       inkscape:path-effect="#path-effect4-5-6"
       inkscape:original-d="M 379.57056,93.437673 398.12487,72.17239 c 0,0 6.31358,-10.378765 13.53232,2.353447 6.09084,10.742848 18.26925,19.328901 24.51508,23.730596 19.14893,13.495057 1.79924,16.194077 -6.8921,17.736807 -10.09377,1.79166 -21.27007,2.87319 -37.06271,-7.24253 -8.26607,-5.2947 -14.92488,-10.757064 -12.6469,-15.313037 z"
       transform="matrix(1.3810981,0,0,1.3810981,90.022526,73.02984)" />
    <circle
       style="fill:#000000;stroke:none;stroke-width:1.38327"
       id="path5-5-4"
       cx="699.4801"
       cy="165.39372"
       r="12.429883" />
    <circle
       style="fill:#000000;stroke:none;stroke-width:2.00315"
       id="path6-25-9"
       cx="699.96399"
       cy="143.68544"
       r="6" />
    <circle
       style="fill:#000000;stroke:none;stroke-width:2.00313"
       id="path6-9-4-0"
       cx="682.92474"
       cy="150.72301"
       r="6" />
    <circle
       style="fill:#000000;stroke:none;stroke-width:2.00315"
       id="path6-4-4-9"
       cx="718.33392"
       cy="150.34798"
       r="6" />
    <circle
       style="fill:#000000;stroke:none;stroke-width:2.00315"
       id="path6-22-8-6-1"
       cx="722.05591"
       cy="166.07326"
       r="6" />
    <circle
       style="fill:#000000;stroke:none;stroke-width:2.00315"
       id="path6-22-8-7"
       cx="676.60114"
       cy="166.9803"
       r="6" />
    <circle
       style="fill:#000000;stroke:none;stroke-width:2.00315"
       id="path6-22-8-9-7"
       cx="685.43744"
       cy="182.82538"
       r="6" />
    <circle
       style="fill:#000000;stroke:none;stroke-width:2.00315"
       id="path6-22-8-8-1"
       cx="703.28436"
       cy="187.92451"
       r="6" />
    <circle
       style="fill:#000000;stroke:none;stroke-width:2.00315"
       id="path6-22-8-2-1"
       cx="717.7973"
       cy="181.06032"
       r="6" />
    <path
       d="m 620.59072,19.293075 c -2.61514,0 -4.35857,1.500006 -6.97369,2.999996 -6.102,4.500022 6.10198,18.00005 6.10198,18.00005 7.8454,10.500032 -4.35857,21.000059 -4.35857,21.000059 0,0 -9.58884,11.25003 0,19.500051 9.58883,9.000024 13.9474,-3.750009 19.17767,-14.250035 6.102,-10.500036 8.71712,-17.25005 1.74342,-33.00009 -5.23026,-10.500032 -10.46055,-14.250031 -15.69081,-14.250031 z"
       style="fill:#000000;stroke-width:0.808571;paint-order:normal"
       id="path1-5" />
    <path
       d="m 663.51348,19.293075 c -2.61514,0 -4.35857,1.500006 -6.97369,2.999996 -6.102,4.500022 6.10198,18.00005 6.10198,18.00005 7.84541,10.500032 -4.35857,21.000059 -4.35857,21.000059 0,0 -9.58884,11.25003 0,19.500051 9.58883,9.000024 13.9474,-3.750009 19.17767,-14.250035 6.102,-10.500036 8.71712,-17.25005 1.74343,-33.00009 -5.23027,-10.500032 -10.46055,-14.250031 -15.69082,-14.250031 z"
       style="fill:#000000;stroke-width:0.808571;paint-order:normal"
       id="path1-0-9" />
    <path
       d="m 705.82813,19.293075 c -2.61514,0 -4.35857,1.500007 -6.97369,2.999996 -6.102,4.500022 6.10198,18.00005 6.10198,18.00005 7.8454,10.500032 -4.35857,21.000059 -4.35857,21.000059 0,0 -9.58884,11.25003 0,19.500051 9.58883,9.000024 13.9474,-3.750009 19.17767,-14.250035 6.102,-10.500036 8.71712,-17.25005 1.74343,-33.00009 -5.23027,-10.500032 -10.46056,-14.250031 -15.69082,-14.250031 z"
       style="fill:#000000;stroke-width:0.808571;paint-order:normal"
       id="path1-2-7" />
  </g>
</svg>
