<svg xmlns="http://www.w3.org/2000/svg" viewBox="0 0 256 256" fill="#e2b714">
  <path d="M191 78H32c-20 0-26 2-26 28 2 77 12 95 30 117 19 21 42 28 72 28 26 0 53-12 71-32 10-10 17-21 21-32 12 2 53 4 53-38s-45-43-47-43V91c0-12-10-13-15-13zm-15 18a4 4 0 1 1 0 8 4 4 0 0 1 0-8zM65 96a4 4 0 1 1 0 8 4 4 0 0 1 0-8zm-14 0a5 5 0 1 1 0 9 5 5 0 0 1 0-9zm-15 1a4 4 0 1 1 0 8 4 4 0 0 1 0-8zm-10 23h161v4c1 15 6 62-30 90-43 34-81 20-105-3-24-22-26-64-26-91zm187 0c9 0 25 4 25 30 0 29-28 25-36 23 3-15 4-33 4-53z"/>
  <circle cx="154" cy="153.2" r="24.4"/>
  <path d="M58 5c-3 0-4 2-7 3-6 5 6 18 6 18 8 11-4 21-4 21s-10 11 0 20c9 9 14-4 19-15 6-10 9-17 2-33C69 9 63 5 58 5z"/>
  <path d="M101 5c-3 0-4 2-7 3-6 5 6 18 6 18 8 11-4 21-4 21s-10 11 0 20c9 9 14-4 19-15 6-10 9-17 2-33-6-10-11-14-16-14z"/>
  <path d="m143 5-7 3c-6 5 6 18 6 18 8 11-4 21-4 21s-10 11 0 20 14-4 19-15c6-10 9-17 2-33-5-10-10-14-16-14z"/>
  <path d="m135 218-6 3c-15 4-16 4-30 4-3-1-15-2-24-7-12-6-22-15-29-26v-5l31-58 22 55 16-29 28 55c1 3-4 7-8 8z"/>
</svg>