<?xml version="1.0" encoding="UTF-8"?>
<svg width="256" height="256" version="1.1" viewBox="0 0 256 256" xmlns="http://www.w3.org/2000/svg">
 <path d="m16.085 79.835c-9 0-17 7-16 16 3 55 23 104 52 131 33 31 73 31 105 0 7-6 14-14 19-23 8.4114 6.2304 18.536 9.7217 29 10 28.167 0 51-22.833 51-51 0.0468-27.035-21.011-49.41-48-51l1-16c1-9-7-16-16-16h-88zm25 33h128c0 37-13 71-32 90-20 18-45 18-64 0-20-19-32-53-32-90zm163 24-2 7c0.99844-0.0791 2.0016-0.0791 3 0 10.882-0.57352 20.015 8.1033 20 19 0.0151 10.897-9.1184 19.574-20 19-5.2992 0.0399-10.374-2.1351-14-6 5-12 10-25 13-39z"/>
 <rect x="85.085" y="5.8353" width="35" height="64" ry="20"/>
 <rect x="133.08" y="5.8353" width="35" height="64" ry="20"/>
 <rect x="38.085" y="5.8353" width="35" height="64" ry="20"/>
 <circle cx="134.6" cy="140.94" r="11.372" stroke-width=".82129"/>
 <path d="m75.38 157.9 13.451-23.927c12.846 16.124 24.031 29.56 31.133 38.561 10.092 12.79 21.694 19.647 13.112 28.229-18.067 16.26-40.063 14.888-57.227-1.3728-18.067-17.164-6.7459-28.07-0.47006-41.49z" stroke-width=".90336"/>
 <circle cx="134.6" cy="122.62" r="3.5792" stroke-width="1.0016"/>
 <circle transform="rotate(90)" cx="140.37" cy="-153.33" r="3.5792" stroke-width="1.0016"/>
 <circle transform="scale(-1)" cx="-135.58" cy="-159.1" r="3.5792" stroke-width="1.0016"/>
 <circle transform="rotate(-90)" cx="-141.35" cy="116.85" r="3.5792" stroke-width="1.0016"/>
 <circle transform="rotate(-45)" cx="-4.5702" cy="176.89" r="3.5792" stroke-width="1.0016"/>
 <circle transform="rotate(45)" cx="194.64" cy="-14.159" r="3.5792" stroke-width="1.0016"/>
 <circle transform="rotate(135)" cx="3.5896" cy="-213.37" r="3.5792" stroke-width="1.0016"/>
 <circle transform="rotate(225)" cx="-195.62" cy="-22.319" r="3.5792" stroke-width="1.0016"/>
 <circle transform="rotate(225)" cx="-195.62" cy="-22.319" r="3.5792" stroke-width="1.0016"/>
</svg>
