<svg xmlns="http://www.w3.org/2000/svg" viewBox="0 0 256 256">
  <path d="M29 87c-8 0-15 6-14 14 3 49 21 92 46 116 30 28 65 28 94 0 6-5 12-12 17-20 7 5 16 8 25 9a45 45 0 0 0 3-91l1-14c1-8-6-14-14-14h-79zm23 29h113c0 33-11 63-28 80-18 16-40 16-57 0-18-17-28-47-28-80zm143 28c12-1 20 7 20 16 0 10-8 18-18 17-4 0-9-2-12-5 5-9 7-18 10-28z"/>
  <rect width="31" height="56" x="91" y="22" ry="18"/>
  <rect width="31" height="56" x="133" y="22" ry="18"/>
  <rect width="31" height="56" x="49" y="22" ry="18"/>
  <circle cx="135" cy="140.9" r="15.4"/>
  <path d="m77 146 12-21 20 53 8-21 15 22c4 6 5 7 1 11-15 15-35 13-50-1-7-8-18-21-16-27l10-16z"/>
</svg>