<?xml version="1.0" encoding="UTF-8" standalone="no"?>
<!-- Created with Inkscape (http://www.inkscape.org/) -->

<svg
   width="275.41626"
   height="179.90976"
   viewBox="0 0 275.41626 179.90976"
   version="1.1"
   id="svg1"
   xmlns="http://www.w3.org/2000/svg"
   xmlns:svg="http://www.w3.org/2000/svg">
  <defs
     id="defs1" />
  <path
     id="path16"
     style="fill:#000000;stroke:none;stroke-width:1.00157"
     d="M 9.3047523,2.5604915e-5 C 4.1656523,1.1560491e-4 -3.4774318e-4,5.8511456 5.2256814e-5,13.068386 v 10.88476 0.12891 H 0.01005226 c 0.034,55.6703 22.63869974,107.095674 59.31249974,134.933584 36.7063,27.85886 81.930398,27.85886 118.636698,0 14.1684,-10.85847 26.4703,-25.46072 36.1289,-42.88476 6.516,4.64138 14.301,7.16819 22.3008,7.23828 21.554,-3.9e-4 39.0269,-17.4733 39.0273,-39.027334 7e-4,-21.5548 -17.8149,-38.98991 -39.3697,-38.9903 -0.1192,0.0131 1.2254,-21.51032 1.2352,-32.28316 4e-4,-7.2214604 -4.1703,-13.07425039 -9.3124,-13.0683603950855 z M 14.732452,33.763696 H 222.54885 c 0,12.45572 -1.5224,23.52114 -2.459,29.28325 v 0 c -2.8948,17.328 -7.6834,31.52526 -14.4257,45.283194 v 0.002 c -8.7762,17.70085 -20.6714,32.79782 -35.0683,43.72461 -32.1492,24.4001 -71.757198,24.40009 -103.906298,0 -32.1491,-24.4001 -51.9551,-69.492774 -51.9551,-118.292964 z m 248.818398,50.37891 c 3e-4,14.89848 -12.0898,26.976294 -27.0039,26.976554 -6.1168,-0.0818 -12.0245,-2.23582 -16.7559,-6.10937 v 0 c 6.8325,-14.685104 11.7683,-30.755914 14.6074,-47.560544 v 0 c 10.3584,-1.79035 29.1528,7.01664 29.1524,26.69336 z" />
  <circle
     style="fill:#f9f9f9;stroke:none;stroke-width:1.00157"
     id="path17"
     cx="29.407471"
     cy="17.592653"
     r="8.8754063" />
  <circle
     style="fill:#f9f9f9;stroke:none;stroke-width:1.00157"
     id="path17-6"
     cx="54.645142"
     cy="17.592653"
     r="8.8754063" />
  <circle
     style="fill:#f9f9f9;stroke:none;stroke-width:1.00157"
     id="path17-8"
     cx="79.882935"
     cy="17.592653"
     r="8.8754063" />
  <circle
     style="fill:#f9f9f9;stroke:none;stroke-width:1.00157"
     id="path17-8-0"
     cx="209.48975"
     cy="17.592653"
     r="8.8754063" />
</svg>
