<?xml version="1.0" encoding="UTF-8" standalone="no"?>
<!-- Created with Inkscape (http://www.inkscape.org/) -->

<svg
   width="672.46082"
   height="446.7998"
   viewBox="0 0 672.46082 446.7998"
   version="1.1"
   id="svg1"
   xmlns="http://www.w3.org/2000/svg"
   xmlns:svg="http://www.w3.org/2000/svg">
  <defs
     id="defs1" />
  <path
     id="path18-4"
     style="fill:#000000;stroke:none;stroke-width:1.00157"
     d="M 41.69909,-1.5348736e-5 C 18.00769,-1.5348736e-5 -1.3342099,19.224915 0.07219014,42.871085 8.5661901,185.69168 59.14109,314.32768 136.86899,386.93948 c 85.4376,79.8137 190.7011,79.8137 276.1387,0 18.2231,-17.0237 34.8878,-37.228 49.9336,-59.8711 a 133.16495,133.16495 0 0 0 76.3555,24.3906 133.16495,133.16495 0 0 0 133.164,-133.166 133.16495,133.16495 0 0 0 -126.5839,-132.927795 c 1.6859,-14.01 3.0749,-28.1558 3.9277,-42.4941 1.4063,-23.64617 -17.9336,-42.871100348736 -41.625,-42.871100348736 H 274.93739 Z M 107.13469,87.644485 h 167.8027 167.8027 c 10e-5,97.000995 -31.9825,186.633695 -83.9004,235.134795 -51.9183,48.5005 -115.8843,48.5005 -167.8027,0 -51.9186,-48.5004 -83.902,-138.1332 -83.9023,-235.134795 z m 435.9453,18.351595 c -0.097,0.6488 -0.2017,1.2935 -0.3008,1.9414 0.1,-0.6475 0.2029,-1.293 0.3008,-1.9414 z m -3.5489,21.3867 c -0.8605,4.714 -1.7791,9.3937 -2.7343,14.0508 0.9605,-4.6541 1.8678,-9.3401 2.7343,-14.0508 z m -4.6894,23.2637 c -1.3455,6.1025 -2.762,12.1598 -4.2734,18.1504 a 50.880173,50.880184 0 0 1 8.7285,-1.3828 50.880173,50.880184 0 0 1 50.8789,50.8789 50.880173,50.880184 0 0 1 -50.8789,50.8808 50.880173,50.880184 0 0 1 -36.7383,-16.5488 c -0.031,0.074 -0.064,0.1451 -0.096,0.2188 13.43,-31.6457 24.351,-65.9526 32.3789,-102.1973 z m -40.9883,121.375 c -0.1833,0.3866 -0.3686,0.7705 -0.5527,1.1562 0.1842,-0.3856 0.3693,-0.7697 0.5527,-1.1562 z m -9.4453,18.8437 c -0.485,0.9159 -0.981,1.8169 -1.4707,2.7266 0.4901,-0.9093 0.9854,-1.8112 1.4707,-2.7266 z m -10.332,18.4453 c -0.9204,1.5531 -1.8638,3.073 -2.7989,4.6055 0.9355,-1.5321 1.878,-3.053 2.7989,-4.6055 z" />
</svg>
