<?xml version="1.0" encoding="UTF-8" standalone="no"?>
<!-- Created with Inkscape (http://www.inkscape.org/) -->

<svg
   width="256"
   height="256"
   viewBox="0 0 256 256"
   version="1.1"
   id="svg1"
   inkscape:version="1.4 (e7c3feb100, 2024-10-09)"
   sodipodi:docname="project.svg"
   xmlns:inkscape="http://www.inkscape.org/namespaces/inkscape"
   xmlns:sodipodi="http://sodipodi.sourceforge.net/DTD/sodipodi-0.dtd"
   xmlns="http://www.w3.org/2000/svg"
   xmlns:svg="http://www.w3.org/2000/svg">
  <sodipodi:namedview
     id="namedview1"
     pagecolor="#ffffff"
     bordercolor="#000000"
     borderopacity="0.25"
     inkscape:showpageshadow="2"
     inkscape:pageopacity="0.0"
     inkscape:pagecheckerboard="0"
     inkscape:deskcolor="#d1d1d1"
     inkscape:document-units="px"
     showborder="true"
     showgrid="true"
     inkscape:zoom="1.2747257"
     inkscape:cx="106.68962"
     inkscape:cy="158.07322"
     inkscape:window-width="1920"
     inkscape:window-height="1176"
     inkscape:window-x="0"
     inkscape:window-y="24"
     inkscape:window-maximized="1"
     inkscape:current-layer="layer1" />
  <defs
     id="defs1">
    <inkscape:path-effect
       effect="fillet_chamfer"
       id="path-effect4"
       is_visible="true"
       lpeversion="1"
       nodesatellites_param="F,0,0,1,0,0,0,1 @ F,0,0,1,0,6.8627082,0,1 @ F,0,0,1,0,0,0,1 @ F,0,0,1,0,0,0,1 @ F,0,0,1,0,0,0,1 @ F,0,0,1,0,0,0,1"
       radius="0"
       unit="px"
       method="auto"
       mode="F"
       chamfer_steps="1"
       flexible="false"
       use_knot_distance="true"
       apply_no_radius="true"
       apply_with_radius="true"
       only_selected="false"
       hide_knots="false" />
    <inkscape:path-effect
       effect="fillet_chamfer"
       id="path-effect4-5"
       is_visible="true"
       lpeversion="1"
       nodesatellites_param="F,0,0,1,0,0,0,1 @ F,0,0,1,0,6.8627082,0,1 @ F,0,0,1,0,0,0,1 @ F,0,0,1,0,0,0,1 @ F,0,0,1,0,0,0,1 @ F,0,0,1,0,0,0,1"
       radius="0"
       unit="px"
       method="auto"
       mode="F"
       chamfer_steps="1"
       flexible="false"
       use_knot_distance="true"
       apply_no_radius="true"
       apply_with_radius="true"
       only_selected="false"
       hide_knots="false" />
  </defs>
  <g
     inkscape:label="Layer 1"
     inkscape:groupmode="layer"
     id="layer1">
  
<path
   id="path2-3"
   style="fill:#000000;stroke:none;stroke-width:1.4147"
   d="m 191.31663,79.584106 c -1.65274,-0.04489 -2.756,0.08276 -2.756,0.08276 H 32.249556 C 12.269734,79.666866 6.3917662,82.0189 6,107.87513 c 2.3505677,76.98108 12.030852,95.60389 30.084226,116.66225 18.783191,21.90965 42.392444,28.37104 71.774544,28.37104 26.05212,0 53.1894,-11.93434 70.99104,-31.42221 9.98006,-10.92539 16.66596,-21.59681 21.15414,-32.86231 12.24385,2.22299 53.13915,4.0675 53.13915,-37.27078 0,-42.84461 -44.47912,-43.21589 -46.92368,-43.20487 -0.0127,-4.95782 -0.0304,-9.872291 -0.0304,-15.242117 0,-11.482535 -9.91423,-13.187348 -14.87246,-13.32203 z m -15.64765,18.061571 a 4.2374481,4.2374481 0 0 1 4.23744,4.237443 4.2374481,4.2374481 0 0 1 -4.23744,4.23746 4.2374481,4.2374481 0 0 1 -4.23746,-4.23746 4.2374481,4.2374481 0 0 1 4.23746,-4.237443 z M 64.891149,97.921553 A 4.2374481,4.2374481 0 0 1 69.128596,102.159 4.2374481,4.2374481 0 0 1 64.891149,106.39645 4.2374481,4.2374481 0 0 1 60.6537,102.159 4.2374481,4.2374481 0 0 1 64.891149,97.921553 Z M 50.989782,98.03191 a 4.2374481,4.2374481 0 0 1 4.237448,4.23745 4.2374481,4.2374481 0 0 1 -4.237448,4.23745 4.2374481,4.2374481 0 0 1 -4.237448,-4.23745 4.2374481,4.2374481 0 0 1 4.237448,-4.23745 z m -14.596575,0.521404 a 4.2374481,4.2374481 0 0 1 4.237449,4.237446 4.2374481,4.2374481 0 0 1 -4.237449,4.23746 4.2374481,4.2374481 0 0 1 -4.237448,-4.23746 4.2374481,4.2374481 0 0 1 4.237448,-4.237446 z m -14.0062,23.435616 H 194.46989 c 0,0 8.81068,62.60589 -33.84993,96.40195 -42.66063,33.79608 -86.706076,19.38997 -110.529533,-3.04841 -23.82347,-22.43837 -28.534469,-64.54378 -27.70342,-93.35354 z m 188.174693,1.48146 c 9.11559,-0.1818 27.34755,2.67466 27.34755,28.43725 0,29.47981 -28.33992,24.89221 -36.39349,22.99698 3.65245,-14.90724 4.47078,-31.52601 4.62919,-51.07283 0.68126,-0.11159 2.08525,-0.31491 4.41675,-0.3614 z" />
<path
   style="fill:#000000;stroke:none;stroke-width:1.00157"
   d="m 379.57056,93.437673 14.04246,-16.094209 c 2.49183,-2.855906 6.23096,-8.645258 9.88065,-9.118147 2.30277,-0.298369 5.15451,0.993308 8.16352,6.30052 6.09084,10.742848 18.26925,19.328901 24.51508,23.730596 19.14893,13.495057 1.79924,16.194077 -6.8921,17.736807 -10.09377,1.79166 -21.27007,2.87319 -37.06271,-7.24253 -8.26607,-5.2947 -14.92488,-10.757064 -12.6469,-15.313037 z"
   id="path4-4"
   sodipodi:nodetypes="ccssssc"
   inkscape:path-effect="#path-effect4-5"
   inkscape:original-d="M 379.57056,93.437673 398.12487,72.17239 c 0,0 6.31358,-10.378765 13.53232,2.353447 6.09084,10.742848 18.26925,19.328901 24.51508,23.730596 19.14893,13.495057 1.79924,16.194077 -6.8921,17.736807 -10.09377,1.79166 -21.27007,2.87319 -37.06271,-7.24253 -8.26607,-5.2947 -14.92488,-10.757064 -12.6469,-15.313037 z"
   transform="matrix(1.3810981,0,0,1.3810981,-472.50328,60.736765)" />
<circle
   style="fill:#000000;stroke:none;stroke-width:1.38327"
   id="path5-5"
   cx="136.95432"
   cy="153.10065"
   r="12.429883" />
<circle
   style="fill:#000000;stroke:none;stroke-width:2.00315"
   id="path6-25"
   cx="137.43822"
   cy="131.39236"
   r="6" />
<circle
   style="fill:#000000;stroke:none;stroke-width:2.00313"
   id="path6-9-4"
   cx="120.399"
   cy="138.42993"
   r="6" />
<circle
   style="fill:#000000;stroke:none;stroke-width:2.00315"
   id="path6-4-4"
   cx="155.80815"
   cy="138.0549"
   r="6" />
<circle
   style="fill:#000000;stroke:none;stroke-width:2.00315"
   id="path6-22-8-6"
   cx="159.53018"
   cy="153.78018"
   r="6" />
<circle
   style="fill:#000000;stroke:none;stroke-width:2.00315"
   id="path6-22-8"
   cx="114.07539"
   cy="154.68723"
   r="6" />
<circle
   style="fill:#000000;stroke:none;stroke-width:2.00315"
   id="path6-22-8-9"
   cx="122.91166"
   cy="170.53232"
   r="6" />
<circle
   style="fill:#000000;stroke:none;stroke-width:2.00315"
   id="path6-22-8-8"
   cx="140.75862"
   cy="175.63145"
   r="6" />
<circle
   style="fill:#000000;stroke:none;stroke-width:2.00315"
   id="path6-22-8-2"
   cx="155.27155"
   cy="168.76724"
   r="6" />
<path
   d="m 58.06491,7 c -2.615143,0 -4.358571,1.5000062 -6.973693,2.9999962 -6.102,4.5000218 6.10198,18.0000498 6.10198,18.0000498 7.845406,10.500033 -4.358572,21.00006 -4.358572,21.00006 0,0 -9.588836,11.250029 0,19.50005 C 62.42346,77.50018 66.782032,64.750147 72.012297,54.250121 78.114296,43.750086 80.729418,37.000072 73.755725,21.250031 68.52546,10.749999 63.295175,7 58.06491,7 Z"
   style="fill:#000000;stroke-width:0.808571;paint-order:normal"
   id="path1" />
<path
   d="m 100.98767,7 c -2.615141,0 -4.358571,1.5000064 -6.973692,2.9999961 -6.102,4.5000219 6.101982,18.0000499 6.101982,18.0000499 7.84541,10.500033 -4.358571,21.00006 -4.358571,21.00006 0,0 -9.588839,11.250029 0,19.50005 9.588831,9.000024 13.947401,-3.750009 19.177671,-14.250035 6.102,-10.500035 8.71712,-17.250049 1.74343,-33.00009 C 111.44822,10.749999 106.21794,7 100.98767,7 Z"
   style="fill:#000000;stroke-width:0.808571;paint-order:normal"
   id="path1-0" />
<path
   d="m 143.30232,7 c -2.61514,0 -4.35857,1.500007 -6.97369,2.9999957 -6.102,4.5000223 6.10198,18.0000503 6.10198,18.0000503 7.8454,10.500033 -4.35857,21.00006 -4.35857,21.00006 0,0 -9.58884,11.250029 0,19.50005 9.58883,9.000024 13.9474,-3.750009 19.17767,-14.250035 6.102,-10.500035 8.71712,-17.250049 1.74343,-33.00009 C 153.76287,10.749999 148.53258,7 143.30232,7 Z"
   style="fill:#000000;stroke-width:0.808571;paint-order:normal"
   id="path1-2" />
</g>
</svg>
