<?xml version="1.0" encoding="UTF-8" standalone="no"?>
<!-- Created with Inkscape (http://www.inkscape.org/) -->

<svg
   width="256"
   height="256"
   viewBox="0 0 256 256"
   version="1.1"
   id="svg1"
   xmlns="http://www.w3.org/2000/svg"
   xmlns:svg="http://www.w3.org/2000/svg">
  <defs
     id="defs1" />
  <g
     id="layer1">
    <path
       d="M 26.504797,80.07154 C 18.345848,80.07154 11.09345,86.811625 12,95.477447 14.719649,148.43525 32.850646,195.61585 59.140593,221.61329 c 29.916144,29.84894 66.178137,29.84894 95.187737,0 5.44696,-4.95888 10.89393,-11.33657 15.19428,-18.52415 1.17554,-1.9648 3.45075,-2.48089 5.31707,-1.26095 6.91168,4.51793 14.84366,7.03734 23.00305,7.2678 25.53435,0 46.23404,-21.98564 46.23404,-49.10632 0.0402,-24.61369 -17.02512,-45.21501 -39.56672,-48.68054 -2.16885,-0.33344 -3.83682,-2.30956 -3.70008,-4.63332 l 0.65897,-11.198363 C 202.37548,86.811625 195.12307,80.07154 186.96413,80.07154 h -79.77639 z m 30.591498,31.77467 H 157.27917 c 4.37838,0 7.95055,3.77329 7.70854,8.41597 -1.68429,32.312 -12.93195,61.39865 -28.79037,78.24227 -18.131,17.33163 -40.794752,17.33163 -58.0192,0 -16.692978,-16.84353 -27.23835,-45.92991 -28.806109,-78.24169 -0.225311,-4.6437 3.345889,-8.41655 7.724264,-8.41655 z m 141.197075,29.78166 c 10.93736,0.48696 17.69311,8.57979 17.68037,18.3618 0.0137,10.49208 -8.26632,18.84675 -18.13101,18.29453 -3.73757,0.0299 -7.35216,-1.23118 -10.32067,-3.54503 -1.41073,-1.0996 -1.68693,-3.55513 -0.90312,-5.21964 3.6425,-7.73516 6.0298,-15.42287 7.8706,-24.52232 0.36811,-1.81963 2.05411,-3.44725 3.80383,-3.36934 z"
       id="path1-5"
       style="fill:#eb0a14;fill-opacity:1;stroke:none;stroke-width:0.93428" />
    <rect
       width="31.708241"
       height="57.980785"
       x="89.08252"
       y="12"
       ry="18.118998"
       id="rect1-3"
       style="fill:#eb0a14;fill-opacity:1;stroke:none;stroke-width:0.905951" />
    <rect
       width="31.708241"
       height="57.980785"
       x="132.56808"
       y="12"
       ry="18.118998"
       id="rect2-5"
       style="fill:#eb0a14;fill-opacity:1;stroke:none;stroke-width:0.905951" />
    <rect
       width="31.708241"
       height="57.980785"
       x="46.502876"
       y="12"
       ry="18.118998"
       id="rect3-6"
       style="fill:#eb0a14;fill-opacity:1;stroke:none;stroke-width:0.905951" />
    <circle
       style="fill:#eb0a14;fill-opacity:1;stroke:none;stroke-width:1.13222"
       id="path2"
       cx="136.20958"
       cy="137.41704"
       r="15.67679" />
    <path
       d="m 87.093892,121.35521 20.396378,46.27975 8.91832,-14.99062 14.76162,24.27945 c 3.88283,6.40257 5.26273,7.48831 1.44218,11.61994 -16.08659,15.65672 -36.1304,14.82547 -50.953212,-1.32187 -6.328056,-6.89352 -10.12309,-14.5798 -12.931445,-20.85847 -0.984863,-2.20185 -1.486568,-5.8159 -0.472408,-8.00318 z"
       id="path1-2"
       style="fill:#eb0a14;fill-opacity:1;stroke:none;stroke-width:0.836431" />
  </g>
</svg>
