<svg xmlns="http://www.w3.org/2000/svg" viewBox="0 0 256 256" fill="#ff282d">
  <path d="M16 86c-9 0-17 7-16 16 3 55 23 104 52 131 33 31 73 31 105 0 7-6 14-14 19-23a51 51 0 0 0 29 10 51 51 0 0 0 51-51 51 51 0 0 0-48-51l1-16c1-9-7-16-16-16h-88zm25 33h128c0 37-13 71-32 90-20 18-45 18-64 0-20-19-32-53-32-90zm166 7zm-2 8zm-1 9-2 7a19 19 0 0 1 3 0 19 19 0 0 1 20 19 19 19 0 0 1-20 19 19 19 0 0 1-14-6c5-12 10-25 13-39z"/>
  <rect width="35" height="64" x="85" y="12" ry="20"/>
  <rect width="35" height="64" x="133" y="12" ry="20"/>
  <rect width="35" height="64" x="38" y="12" ry="20"/>
</svg>